<svg xmlns="http://www.w3.org/2000/svg" width="552" height="882" fill="none"><g clip-path="url(#a)"><path fill="#FAFAFA" d="M0 0h552v882H0z"/><path fill="#FAFAFA" d="M0 0h552v882H0z"/><path fill="#212B36" d="m106.537 296-7.863-22.739h4.387l6.086 17.408 6.055-17.408h4.403L111.742 296zm21.338.315q-2.422 0-4.261-1.007a7.23 7.23 0 0 1-2.847-2.878q-1.022-1.855-1.022-4.372 0-2.437.928-4.387.944-1.965 2.705-3.098 1.76-1.148 4.261-1.148 2.485 0 4.168 1.054 1.682 1.037 2.547 2.909.865 1.856.865 4.293v1.242H124.29q0 1.243.409 2.171.408.911 1.179 1.415.786.487 1.887.487 1.18 0 2.06-.503t1.243-1.651h4.135q-.283 1.73-1.383 2.956a7.2 7.2 0 0 1-2.674 1.872 8.5 8.5 0 0 1-3.271.645m-3.585-10.128h6.636q0-.975-.377-1.793a2.87 2.87 0 0 0-1.101-1.289q-.723-.472-1.824-.472-1.054 0-1.809.519a3.4 3.4 0 0 0-1.148 1.321 3.75 3.75 0 0 0-.377 1.714M138.527 296v-16.26h4.513v2.296q.378-.599.975-1.148.614-.567 1.541-.928.929-.362 2.202-.362a6.7 6.7 0 0 1 2.784.582q1.305.582 2.107 1.84.801 1.242.802 3.255V296h-4.592v-10.159q0-1.32-.786-1.981-.787-.661-1.919-.661-.755 0-1.462.268a2.7 2.7 0 0 0-1.133.802q-.44.534-.44 1.321V296zm25.074.173q-2.155 0-3.334-.55-1.164-.55-1.62-1.542-.44-.99-.44-2.296v-8.853h-2.642v-3.192h2.783l1.164-4.907h3.271v4.891h3.617v3.208h-3.617l.031 8.665q0 .597.142.896a.77.77 0 0 0 .472.378q.33.078.833.078h2.186v2.831q-.33.141-.991.267-.66.126-1.855.126m13.018.142q-2.421 0-4.262-1.007a7.22 7.22 0 0 1-2.846-2.878q-1.022-1.855-1.022-4.372 0-2.437.928-4.387.943-1.965 2.704-3.098 1.762-1.148 4.262-1.148 2.486 0 4.167 1.054 1.683 1.037 2.548 2.909.865 1.856.865 4.293v1.242h-10.929q0 1.243.408 2.171.41.911 1.18 1.415.786.487 1.887.487 1.18 0 2.06-.503t1.242-1.651h4.136q-.282 1.73-1.384 2.956a7.2 7.2 0 0 1-2.673 1.872 8.5 8.5 0 0 1-3.271.645m-3.585-10.128h6.636q0-.975-.378-1.793a2.87 2.87 0 0 0-1.1-1.289q-.724-.472-1.825-.472-1.053 0-1.808.519a3.4 3.4 0 0 0-1.148 1.321 3.75 3.75 0 0 0-.377 1.714m28.525 10.128q-2.421 0-4.262-1.007a7.23 7.23 0 0 1-2.846-2.878q-1.022-1.855-1.022-4.372 0-2.437.928-4.387.943-1.965 2.705-3.098 1.76-1.148 4.261-1.148 2.485 0 4.168 1.054 1.682 1.037 2.547 2.909.865 1.856.865 4.293v1.242h-10.929q0 1.243.408 2.171.41.911 1.18 1.415.786.487 1.887.487 1.18 0 2.06-.503t1.242-1.651h4.136q-.283 1.73-1.384 2.956a7.2 7.2 0 0 1-2.673 1.872 8.5 8.5 0 0 1-3.271.645m-3.585-10.128h6.636q0-.975-.378-1.793a2.87 2.87 0 0 0-1.1-1.289q-.724-.472-1.825-.472-1.053 0-1.808.519a3.4 3.4 0 0 0-1.148 1.321 3.75 3.75 0 0 0-.377 1.714m20.728 9.986q-2.154 0-3.333-.55-1.164-.55-1.62-1.542-.441-.99-.441-2.296v-8.853h-2.641v-3.192h2.783l1.164-4.907h3.271v4.891h3.617v3.208h-3.617l.031 8.665q0 .597.142.896a.77.77 0 0 0 .471.378q.33.078.834.078h2.186v2.831q-.33.141-.991.267-.66.126-1.856.126m17.994.142q-1.542 0-2.799-.582a4.66 4.66 0 0 1-1.966-1.683q-.723-1.116-.723-2.705 0-2.673 1.997-4.057 1.996-1.4 6.306-1.447l2.044-.031v-.975q0-1.117-.66-1.714-.645-.613-2.029-.598-.99.015-1.903.472-.895.456-1.242 1.588H231.9q.093-1.762 1.022-2.893.944-1.149 2.532-1.699 1.587-.566 3.632-.566 2.485 0 3.995.629 1.51.613 2.185 1.777.693 1.148.692 2.736V296h-3.837l-.377-2.799q-.834 1.761-2.092 2.437-1.242.677-2.956.677m1.557-3.02q.613 0 1.195-.22a4.1 4.1 0 0 0 1.069-.613q.472-.393.739-.881a2.1 2.1 0 0 0 .299-1.006v-2.406l-1.651.031a8.7 8.7 0 0 0-2.139.283q-.99.252-1.604.834-.597.581-.597 1.572 0 1.132.77 1.777.786.629 1.919.629m18.506 3.02q-2.265 0-4.042-1.007t-2.799-2.878q-1.006-1.887-1.006-4.497 0-2.517.975-4.435t2.736-2.988q1.777-1.085 4.136-1.085 2.044 0 3.523.834a6.2 6.2 0 0 1 2.343 2.248q.865 1.416.99 3.161h-3.821a4 4 0 0 0-.456-1.274 2.85 2.85 0 0 0-.975-1.053q-.629-.425-1.573-.425-1.603 0-2.61 1.242-.991 1.227-.991 3.743 0 2.375.975 3.774.975 1.384 2.721 1.384.927 0 1.541-.456.628-.455.975-1.085.346-.645.44-1.195h3.727a6.4 6.4 0 0 1-.975 3.051q-.865 1.352-2.359 2.154-1.478.786-3.475.787M266.79 296v-23.368h4.561v9.451a6.8 6.8 0 0 1 .991-1.117q.597-.566 1.493-.943.897-.378 2.186-.378 1.557 0 2.831.614 1.29.597 2.06 1.745.786 1.147.786 2.799V296h-4.607v-10.521q0-1.1-.802-1.682-.786-.598-1.919-.598-.74 0-1.431.268-.692.267-1.132.817-.425.535-.425 1.337V296zm23.349.315q-1.542 0-2.799-.582a4.67 4.67 0 0 1-1.966-1.683q-.723-1.116-.723-2.705 0-2.673 1.997-4.057 1.996-1.4 6.306-1.447l2.044-.031v-.975q0-1.117-.66-1.714-.645-.613-2.029-.598-.99.015-1.903.472-.895.456-1.242 1.588h-3.821q.093-1.762 1.022-2.893.944-1.149 2.532-1.699 1.587-.566 3.632-.566 2.485 0 3.995.629 1.51.613 2.185 1.777.692 1.148.692 2.736V296h-3.837l-.377-2.799q-.834 1.761-2.092 2.437-1.242.677-2.956.677m1.557-3.02q.613 0 1.195-.22a4.1 4.1 0 0 0 1.069-.613q.472-.393.739-.881a2.1 2.1 0 0 0 .299-1.006v-2.406l-1.651.031a8.7 8.7 0 0 0-2.139.283q-.99.252-1.604.834-.597.581-.597 1.572 0 1.132.77 1.777.786.629 1.919.629m17.86 2.878q-2.155 0-3.334-.55-1.164-.55-1.62-1.542-.44-.99-.44-2.296v-8.853h-2.642v-3.192h2.783l1.164-4.907h3.271v4.891h3.617v3.208h-3.617l.031 8.665q0 .597.142.896a.77.77 0 0 0 .472.378q.33.078.833.078h2.186v2.831q-.33.141-.991.267-.66.126-1.855.126m20.451.142q-2.422 0-4.262-1.007a7.22 7.22 0 0 1-2.846-2.878q-1.023-1.855-1.023-4.372 0-2.437.928-4.387.944-1.965 2.705-3.098 1.761-1.148 4.262-1.148 2.484 0 4.167 1.054 1.683 1.037 2.548 2.909.865 1.856.865 4.293v1.242h-10.93q0 1.243.409 2.171.41.911 1.18 1.415.786.487 1.887.487 1.18 0 2.06-.503t1.242-1.651h4.136q-.283 1.73-1.384 2.956a7.2 7.2 0 0 1-2.673 1.872 8.5 8.5 0 0 1-3.271.645m-3.586-10.128h6.636q0-.975-.377-1.793a2.87 2.87 0 0 0-1.101-1.289q-.723-.472-1.824-.472-1.053 0-1.808.519a3.4 3.4 0 0 0-1.148 1.321 3.76 3.76 0 0 0-.378 1.714M340.658 296v-16.26h4.514v2.296q.376-.599.975-1.148.613-.567 1.541-.928t2.201-.362a6.7 6.7 0 0 1 2.784.582q1.305.582 2.107 1.84.802 1.242.802 3.255V296h-4.592v-10.159q0-1.32-.786-1.981t-1.919-.661q-.754 0-1.462.268a2.7 2.7 0 0 0-1.132.802q-.441.534-.441 1.321V296zm30.929.283q-1.793 0-2.847-.425-1.053-.424-1.557-1.116a3.7 3.7 0 0 1-.644-1.557 11 11 0 0 1-.142-1.745v-18.808h4.498v18.241q0 .897.377 1.463.393.55 1.463.676l.77.047v2.831a10 10 0 0 1-.959.267 3.8 3.8 0 0 1-.959.126m5.054-.283v-16.26h4.388V296zm-.047-18.588v-4.136h4.466v4.136zm15.811 23.966q-4.34 0-6.605-1.101-2.249-1.1-2.249-2.893 0-.833.425-1.4a3.4 3.4 0 0 1 1.022-.896q.597-.346 1.085-.519.503-.189.629-.252l-.739-.409a3.4 3.4 0 0 1-.865-.754q-.393-.488-.393-1.258 0-.866.818-1.604.833-.74 2.516-1.023-1.605-.754-2.453-2.044-.834-1.29-.834-2.642 0-1.604 1.007-2.752t2.752-1.745q1.745-.598 3.947-.598 1.667 0 2.736.362a8.8 8.8 0 0 1 1.997.912q.362-.142.944-.362.597-.236 1.289-.503.708-.283 1.368-.551l1.18-.503-.032 3.554-2.799.456q.157.425.252.912.094.488.094.802 0 1.416-.833 2.642-.817 1.227-2.454 1.982-1.635.755-4.073.755-.282 0-.786-.016a13 13 0 0 1-.818-.047q-.912.047-1.273.236-.346.188-.346.44 0 .377.707.503.708.11 2.139.205.52.031 1.415.078.897.048 1.966.126 2.988.204 4.451 1.478 1.478 1.259 1.478 3.177 0 2.28-2.17 3.758-2.155 1.494-6.495 1.494m.739-2.563q1.902 0 2.721-.472.833-.471.833-1.352 0-.74-.645-1.195-.629-.472-1.824-.551l-3.727-.251q-.74-.032-1.289.22a2.1 2.1 0 0 0-.865.692q-.3.44-.299.943 0 1.023 1.242 1.494 1.243.472 3.853.472m-.865-11.433q1.305 0 2.092-.707.786-.724.786-1.95 0-1.274-.786-2.045-.787-.77-2.092-.77t-2.107.77-.802 2.045q0 1.21.77 1.934.787.723 2.139.723M404.637 296v-16.26h4.513v2.296q.376-.599.975-1.148.613-.567 1.541-.928t2.202-.362q1.493 0 2.783.582 1.305.582 2.107 1.84.802 1.242.802 3.255V296h-4.592v-10.159q0-1.32-.786-1.981t-1.918-.661a4.1 4.1 0 0 0-1.463.268 2.7 2.7 0 0 0-1.132.802q-.441.534-.441 1.321V296zm26.113.315q-2.422 0-4.262-1.007a7.22 7.22 0 0 1-2.846-2.878q-1.022-1.855-1.022-4.372 0-2.437.928-4.387.943-1.965 2.704-3.098 1.762-1.148 4.262-1.148 2.485 0 4.167 1.054 1.683 1.037 2.548 2.909.865 1.856.865 4.293v1.242h-10.93q0 1.243.409 2.171.41.911 1.18 1.415.786.487 1.887.487 1.18 0 2.06-.503t1.242-1.651h4.136q-.283 1.73-1.384 2.956a7.2 7.2 0 0 1-2.673 1.872 8.5 8.5 0 0 1-3.271.645m-3.586-10.128h6.637q0-.975-.378-1.793a2.87 2.87 0 0 0-1.101-1.289q-.723-.472-1.824-.472-1.053 0-1.808.519a3.4 3.4 0 0 0-1.148 1.321 3.76 3.76 0 0 0-.378 1.714M119.969 332.109l4.105-11.37h1.855l4.097 11.37h-1.698l-1.07-2.98h-4.505l-1.077 2.98zm3.201-4.506h3.648l-1.824-5.228zm9.771 4.506-2.973-8.13h1.557l2.06 5.999h.11l2.061-5.999h1.556l-2.956 8.13zm5.878 0v-8.13h1.62v8.13zm-.04-9.703v-1.659h1.691v1.659zm7.1 9.758q-.905 0-1.4-.244a1.38 1.38 0 0 1-.692-.7q-.197-.464-.197-1.116v-4.914h-1.321v-1.211h1.376l.409-2.391h1.227v2.383h1.824v1.219h-1.824l.008 4.851q0 .4.078.59a.43.43 0 0 0 .284.236q.204.047.55.047h.943v1.093a2 2 0 0 1-.463.11 5.6 5.6 0 0 1-.802.047m6.232.102q-1.14 0-1.989-.487a3.36 3.36 0 0 1-1.321-1.431q-.472-.936-.472-2.265 0-1.281.448-2.241a3.4 3.4 0 0 1 1.29-1.486q.849-.534 2.052-.535 1.147 0 1.989.504.841.495 1.305 1.454.464.952.464 2.304 0 1.234-.432 2.178a3.38 3.38 0 0 1-1.274 1.478q-.834.527-2.06.527m.008-1.297q.7 0 1.163-.362.465-.37.7-1.03.236-.668.236-1.541 0-.81-.212-1.47-.204-.669-.669-1.062-.456-.393-1.218-.393-.7 0-1.18.362-.471.353-.707 1.014-.236.652-.236 1.549 0 .794.212 1.462.213.669.676 1.07.472.4 1.235.401m5.156 3.176.888-1.997-.715-.047v-1.871h1.95v1.635l-1.4 2.28zm10.243-1.926q-.723 0-1.163-.189a1.56 1.56 0 0 1-.661-.503 1.9 1.9 0 0 1-.307-.723 5 5 0 0 1-.07-.842v-9.537h1.659v9.364q0 .567.22.865.228.299.692.338l.424.016v1.069a4 4 0 0 1-.408.103 2 2 0 0 1-.386.039m4.91.047q-.786 0-1.4-.283a2.2 2.2 0 0 1-.951-.818q-.346-.534-.346-1.289 0-1.352.951-2.021.96-.667 3.067-.708l1.336-.039v-.59q0-.7-.416-1.1-.417-.402-1.29-.394-.645 0-1.156.299t-.668.983H170.1q.048-.81.464-1.36.424-.558 1.164-.842.739-.282 1.73-.283 1.116 0 1.832.307.716.299 1.061.881.354.582.354 1.415v5.685h-1.431l-.126-1.494q-.456.936-1.156 1.297a3.4 3.4 0 0 1-1.564.354m.527-1.171q.385 0 .762-.134.378-.141.684-.378.307-.243.488-.542.189-.299.196-.613v-1.345l-1.1.024q-.841.008-1.431.173-.582.165-.897.511-.306.345-.307.92 0 .653.449 1.022.456.362 1.156.362m9.654 1.014v-8.13h1.635v1.171q.347-.534.944-.928.597-.4 1.541-.401.44 0 .889.15.455.149.833.448.386.291.605.723a3 3 0 0 1 1.031-.951q.644-.37 1.446-.37.433 0 .897.142.464.134.857.464.4.323.644.896.252.574.252 1.455v5.331h-1.69v-5.15q0-.668-.228-1.046a1.2 1.2 0 0 0-.582-.527 1.8 1.8 0 0 0-.755-.157q-.362 0-.755.141a1.54 1.54 0 0 0-.668.472q-.276.33-.276.897v5.37h-1.682v-5.512q0-.448-.244-.755a1.43 1.43 0 0 0-.598-.456 1.7 1.7 0 0 0-.707-.157q-.393 0-.786.157-.394.158-.661.495-.26.33-.259.858v5.37zm16.018.157q-.786 0-1.4-.283a2.23 2.23 0 0 1-.951-.818q-.346-.534-.346-1.289 0-1.352.952-2.021.959-.667 3.066-.708l1.337-.039v-.59q0-.7-.417-1.1-.417-.402-1.29-.394-.644 0-1.155.299-.512.299-.669.983H196.3q.047-.81.464-1.36.425-.558 1.163-.842.74-.282 1.73-.283 1.116 0 1.832.307.715.299 1.062.881.353.582.353 1.415v5.685h-1.431l-.125-1.494q-.457.936-1.156 1.297a3.4 3.4 0 0 1-1.565.354m.527-1.171q.385 0 .763-.134.377-.141.684-.378.306-.243.487-.542.189-.299.197-.613v-1.345l-1.101.024q-.842.008-1.431.173-.582.165-.896.511-.307.345-.307.92 0 .653.448 1.022.456.362 1.156.362m5.907 1.014v-8.13h1.612v1.667q.204-.599.566-.999a2.4 2.4 0 0 1 .857-.613 2.55 2.55 0 0 1 1.03-.213q.165 0 .315.024.149.015.236.063v1.62a.8.8 0 0 0-.268-.063 7 7 0 0 0-.275-.024 3.5 3.5 0 0 0-.975.055 2.1 2.1 0 0 0-.763.315 1.5 1.5 0 0 0-.487.574q-.165.353-.165.833v4.891zm6.235 0v-11.684h1.683v7.43l3.593-3.876h1.887l-2.94 3.137 3.113 4.993h-1.745l-2.446-3.924-1.462 1.518v2.406zm12.061.157q-1.155 0-2.036-.495a3.5 3.5 0 0 1-1.376-1.431q-.488-.928-.488-2.21 0-1.266.449-2.233a3.5 3.5 0 0 1 1.297-1.525q.849-.55 2.044-.551 1.172 0 1.982.504.81.503 1.226 1.415.417.904.417 2.139v.558h-5.724q-.008.73.236 1.313.243.575.723.912.488.33 1.211.33.732 0 1.258-.33.535-.33.7-.983h1.557a2.74 2.74 0 0 1-.669 1.416 3.4 3.4 0 0 1-1.266.88 4.2 4.2 0 0 1-1.541.291m-2.209-4.922h4.12q0-.637-.22-1.156a1.8 1.8 0 0 0-.676-.825q-.449-.307-1.133-.307-.7 0-1.163.338a2.1 2.1 0 0 0-.7.865 2.7 2.7 0 0 0-.228 1.085m10.424 4.82q-.905 0-1.4-.244a1.38 1.38 0 0 1-.692-.7q-.196-.464-.196-1.116v-4.914h-1.321v-1.211h1.376l.409-2.391h1.226v2.383h1.824v1.219h-1.824l.008 4.851q0 .4.079.59.086.18.283.236.204.047.55.047h.944v1.093q-.15.062-.464.11a5.6 5.6 0 0 1-.802.047m3.113 2.477v-10.662h1.683l.016 1.352q.149-.267.385-.527a3 3 0 0 1 1.305-.849q.425-.134.936-.134.959 0 1.69.449.74.44 1.148 1.36.417.912.417 2.319 0 1.416-.417 2.375-.409.96-1.171 1.455-.763.487-1.809.487-.503 0-.904-.141a2.7 2.7 0 0 1-.708-.37 3.2 3.2 0 0 1-.526-.503 4 4 0 0 1-.354-.543v3.932zm3.829-3.657q.936 0 1.534-.723.605-.73.605-2.28 0-1.329-.558-2.1-.55-.778-1.581-.778-1.06 0-1.604.81-.542.802-.542 2.068 0 .825.236 1.51.243.675.723 1.085.48.408 1.187.408m7.787 1.235q-.724 0-1.164-.189a1.56 1.56 0 0 1-.66-.503 1.85 1.85 0 0 1-.307-.723 5 5 0 0 1-.071-.842v-9.537h1.659v9.364q0 .567.22.865.228.299.692.338l.425.016v1.069a3 3 0 0 1-.409.103 2 2 0 0 1-.385.039m4.909.047q-.787 0-1.399-.283a2.23 2.23 0 0 1-.952-.818q-.346-.534-.346-1.289 0-1.352.952-2.021.958-.667 3.066-.708l1.337-.039v-.59q0-.7-.417-1.1-.417-.402-1.289-.394-.645 0-1.156.299t-.669.983h-1.454q.047-.81.464-1.36.425-.558 1.163-.842.74-.282 1.73-.283 1.117 0 1.832.307.715.299 1.062.881.354.582.354 1.415v5.685h-1.432l-.125-1.494q-.456.936-1.156 1.297a3.4 3.4 0 0 1-1.565.354m.527-1.171q.385 0 .763-.134.377-.141.684-.378.306-.243.487-.542a1.2 1.2 0 0 0 .197-.613v-1.345l-1.101.024q-.842.008-1.431.173-.582.165-.896.511-.307.345-.307.92 0 .653.448 1.022.456.362 1.156.362m9.249 1.171q-1.101 0-1.958-.479a3.4 3.4 0 0 1-1.345-1.424q-.487-.943-.487-2.288 0-1.265.448-2.225a3.5 3.5 0 0 1 1.305-1.494q.85-.534 2.037-.535.92 0 1.628.362.707.354 1.147.991.449.636.543 1.486h-1.462a1.8 1.8 0 0 0-.299-.747 1.7 1.7 0 0 0-.621-.55 1.9 1.9 0 0 0-.92-.213q-.984 0-1.597.716-.612.715-.613 2.194 0 1.352.574 2.154t1.659.802q.535 0 .92-.22a1.8 1.8 0 0 0 .613-.566q.236-.346.299-.716h1.431a3 3 0 0 1-1.69 2.406q-.708.346-1.612.346m8.704 0q-1.156 0-2.037-.495a3.53 3.53 0 0 1-1.376-1.431q-.487-.928-.487-2.21 0-1.266.448-2.233a3.5 3.5 0 0 1 1.298-1.525q.849-.55 2.044-.551 1.171 0 1.981.504.81.503 1.227 1.415.417.904.417 2.139v.558h-5.724q-.009.73.235 1.313.244.575.724.912.487.33 1.211.33.731 0 1.258-.33.534-.33.7-.983h1.556a2.74 2.74 0 0 1-.668 1.416 3.4 3.4 0 0 1-1.266.88 4.2 4.2 0 0 1-1.541.291m-2.209-4.922h4.12q0-.637-.221-1.156a1.78 1.78 0 0 0-.676-.825q-.448-.307-1.132-.307-.7 0-1.164.338a2.1 2.1 0 0 0-.699.865 2.7 2.7 0 0 0-.228 1.085m88.45 4.922q-1.596 0-2.524-1.093-.92-1.1-.92-3.169 0-1.265.37-2.201.377-.944 1.109-1.463.73-.519 1.824-.519.541 0 .975.134.432.134.755.346.322.213.542.456t.33.456v-4.788h1.699v11.684h-1.266l-.189-1.667a3 3 0 0 1-.267.582 2.3 2.3 0 0 1-.488.597 2.4 2.4 0 0 1-.786.464q-.48.181-1.164.181m.323-1.266q1.132 0 1.635-.707.504-.716.503-2.344-.007-.92-.228-1.556-.212-.637-.676-.96-.456-.33-1.203-.33-.936 0-1.533.676-.59.669-.59 2.17 0 1.479.535 2.265.542.786 1.557.786m9.633 1.266q-1.155 0-2.036-.495a3.5 3.5 0 0 1-1.376-1.431q-.488-.928-.488-2.21 0-1.266.449-2.233a3.5 3.5 0 0 1 1.297-1.525q.85-.55 2.044-.551 1.172 0 1.982.504.81.503 1.226 1.415.417.904.417 2.139v.558h-5.724q-.008.73.236 1.313.243.575.723.912.488.33 1.211.33.732 0 1.258-.33.535-.33.7-.983h1.557a2.75 2.75 0 0 1-.668 1.416 3.4 3.4 0 0 1-1.266.88 4.2 4.2 0 0 1-1.542.291m-2.209-4.922h4.12q0-.637-.22-1.156a1.8 1.8 0 0 0-.676-.825q-.448-.307-1.132-.307-.7 0-1.164.338a2.13 2.13 0 0 0-.7.865 2.7 2.7 0 0 0-.228 1.085m13.365 4.765-2.972-8.13h1.557l2.06 5.999h.11l2.06-5.999h1.557l-2.956 8.13zm9.177.157q-1.155 0-2.036-.495a3.5 3.5 0 0 1-1.376-1.431q-.488-.928-.488-2.21 0-1.266.449-2.233a3.5 3.5 0 0 1 1.297-1.525q.85-.55 2.044-.551 1.172 0 1.982.504.81.503 1.226 1.415.417.904.417 2.139v.558h-5.724q-.008.73.236 1.313.243.575.723.912.488.33 1.211.33.732 0 1.258-.33.535-.33.7-.983h1.557a2.74 2.74 0 0 1-.669 1.416 3.4 3.4 0 0 1-1.265.88 4.2 4.2 0 0 1-1.542.291m-2.209-4.922h4.12q0-.637-.22-1.156a1.8 1.8 0 0 0-.676-.825q-.448-.307-1.133-.307-.7 0-1.163.338a2.1 2.1 0 0 0-.7.865 2.7 2.7 0 0 0-.228 1.085m7.64 4.765v-8.13h1.643v1.171q.197-.33.527-.621.339-.29.826-.472.495-.18 1.14-.181.763 0 1.407.307.653.299 1.046.944.393.637.393 1.651v5.331h-1.682v-5.15q0-.873-.472-1.298-.464-.424-1.203-.424-.495 0-.944.165t-.723.503q-.276.33-.275.834v5.37zm11.921.055q-.904 0-1.399-.244a1.38 1.38 0 0 1-.692-.7q-.197-.464-.197-1.116v-4.914h-1.321v-1.211h1.376l.409-2.391h1.227v2.383h1.824v1.219h-1.824l.008 4.851q0 .4.078.59a.43.43 0 0 0 .283.236q.205.047.551.047h.943v1.093a2 2 0 0 1-.464.11 5.5 5.5 0 0 1-.802.047m6.421.102q-1.155 0-2.036-.495a3.5 3.5 0 0 1-1.376-1.431q-.488-.928-.488-2.21 0-1.266.449-2.233a3.5 3.5 0 0 1 1.297-1.525q.849-.55 2.044-.551 1.172 0 1.982.504.81.503 1.226 1.415.417.904.417 2.139v.558h-5.724q-.008.73.236 1.313.243.575.723.912.488.33 1.211.33.732 0 1.258-.33.535-.33.7-.983h1.557a2.74 2.74 0 0 1-.669 1.416 3.4 3.4 0 0 1-1.266.88 4.2 4.2 0 0 1-1.541.291m-2.209-4.922h4.12q0-.637-.22-1.156a1.8 1.8 0 0 0-.676-.825q-.449-.307-1.133-.307-.7 0-1.163.338a2.1 2.1 0 0 0-.7.865 2.7 2.7 0 0 0-.228 1.085m14.649 4.922q-1.156 0-2.037-.495a3.5 3.5 0 0 1-1.376-1.431q-.487-.928-.487-2.21 0-1.266.448-2.233a3.53 3.53 0 0 1 1.297-1.525q.85-.55 2.045-.551 1.171 0 1.981.504.81.503 1.227 1.415.416.904.416 2.139v.558h-5.724q-.007.73.236 1.313.244.575.723.912.488.33 1.211.33.732 0 1.258-.33.535-.33.7-.983h1.557a2.74 2.74 0 0 1-.668 1.416 3.4 3.4 0 0 1-1.266.88 4.2 4.2 0 0 1-1.541.291m-2.21-4.922h4.12q0-.637-.22-1.156a1.8 1.8 0 0 0-.676-.825q-.448-.307-1.132-.307-.7 0-1.164.338a2.13 2.13 0 0 0-.7.865 2.7 2.7 0 0 0-.228 1.085m10.424 4.82q-.904 0-1.4-.244a1.38 1.38 0 0 1-.691-.7q-.197-.464-.197-1.116v-4.914h-1.321v-1.211h1.376l.409-2.391h1.226v2.383h1.825v1.219h-1.825l.008 4.851q0 .4.079.59a.43.43 0 0 0 .283.236q.204.047.55.047h.944v1.093q-.15.062-.464.11a5.6 5.6 0 0 1-.802.047m-246.018 18.102q-1.596 0-2.524-1.093-.92-1.1-.919-3.169 0-1.265.369-2.201.377-.944 1.109-1.463.73-.519 1.824-.519.543 0 .975.134t.755.346.542.456q.22.244.331.456v-4.788h1.698v11.684h-1.266l-.189-1.667a3 3 0 0 1-.267.582 2.3 2.3 0 0 1-.488.597 2.4 2.4 0 0 1-.786.464q-.48.181-1.164.181m.323-1.266q1.133 0 1.635-.707.504-.716.504-2.344-.009-.92-.228-1.556-.212-.637-.677-.96-.456-.33-1.203-.33-.935 0-1.533.676-.59.669-.59 2.17 0 1.479.535 2.265.543.786 1.557.786m6.358-6.392-.496-3.869h1.927l-.511 3.869zm5.113 7.658q-.786 0-1.399-.283a2.23 2.23 0 0 1-.952-.818q-.345-.534-.346-1.289 0-1.352.952-2.021.959-.667 3.066-.708l1.337-.039v-.59q0-.7-.417-1.1-.416-.402-1.289-.394-.645 0-1.156.299-.512.299-.668.983h-1.455q.047-.81.464-1.36.424-.558 1.164-.842.738-.282 1.729-.283 1.117 0 1.832.307.716.299 1.062.881.354.582.354 1.415v5.685h-1.431l-.126-1.494q-.456.936-1.156 1.297a3.4 3.4 0 0 1-1.565.354m.527-1.171q.385 0 .763-.134.377-.141.684-.378.306-.243.487-.542a1.2 1.2 0 0 0 .197-.613v-1.345l-1.101.024q-.842.008-1.431.173-.582.165-.896.511-.307.345-.307.92 0 .653.448 1.022.457.362 1.156.362m9.249 1.171q-1.1 0-1.958-.479-.857-.488-1.344-1.424-.488-.943-.488-2.288 0-1.265.448-2.225a3.5 3.5 0 0 1 1.306-1.494q.85-.534 2.036-.535.92 0 1.628.362.707.354 1.148.991.447.636.542 1.486h-1.462a1.8 1.8 0 0 0-.299-.747 1.7 1.7 0 0 0-.621-.55 1.9 1.9 0 0 0-.92-.213q-.983 0-1.596.716-.614.715-.614 2.194 0 1.352.574 2.154.575.802 1.659.802.536 0 .92-.22.386-.22.614-.566a1.8 1.8 0 0 0 .298-.716h1.432a3 3 0 0 1-.543 1.439 3 3 0 0 1-1.148.967q-.708.346-1.612.346m5.136-.157v-11.684h1.659v4.741q.196-.322.526-.613.338-.291.818-.472a3.1 3.1 0 0 1 1.132-.189q.795 0 1.431.299.645.291 1.023.849.385.55.385 1.313v5.756h-1.683v-5.449q0-.684-.472-1.054-.471-.369-1.21-.369-.496 0-.944.173-.44.165-.715.503-.268.33-.268.833v5.363zm11.426.157q-.786 0-1.4-.283a2.23 2.23 0 0 1-.951-.818q-.346-.534-.346-1.289 0-1.352.951-2.021.96-.667 3.067-.708l1.337-.039v-.59q0-.7-.417-1.1-.417-.402-1.29-.394-.645 0-1.156.299t-.668.983h-1.455q.048-.81.464-1.36.424-.558 1.164-.842.739-.282 1.73-.283 1.116 0 1.832.307.716.299 1.061.881.354.582.354 1.415v5.685h-1.431l-.126-1.494q-.456.936-1.155 1.297a3.4 3.4 0 0 1-1.565.354m.527-1.171q.385 0 .762-.134.378-.141.684-.378.307-.243.488-.542.189-.299.197-.613v-1.345l-1.101.024q-.842.008-1.431.173-.582.165-.897.511-.306.345-.306.92 0 .653.448 1.022.456.362 1.156.362m8.691 1.069q-.905 0-1.4-.244a1.38 1.38 0 0 1-.692-.7q-.196-.464-.196-1.116v-4.914h-1.321v-1.211h1.376l.408-2.391h1.227v2.383h1.824v1.219h-1.824l.008 4.851q0 .4.079.59.086.18.283.236.204.047.55.047h.944v1.093q-.15.062-.464.11a5.6 5.6 0 0 1-.802.047m10.214.102q-1.156 0-2.037-.495a3.53 3.53 0 0 1-1.376-1.431q-.487-.928-.487-2.21 0-1.266.448-2.233a3.53 3.53 0 0 1 1.297-1.525q.85-.55 2.045-.551 1.171 0 1.981.504.81.503 1.227 1.415.417.904.417 2.139v.558h-5.725q-.007.73.236 1.313.244.575.724.912.487.33 1.211.33.73 0 1.258-.33.534-.33.699-.983h1.557a2.74 2.74 0 0 1-.668 1.416 3.4 3.4 0 0 1-1.266.88 4.2 4.2 0 0 1-1.541.291m-2.21-4.922h4.121q0-.637-.221-1.156a1.78 1.78 0 0 0-.676-.825q-.448-.307-1.132-.307-.7 0-1.164.338a2.14 2.14 0 0 0-.7.865 2.7 2.7 0 0 0-.228 1.085m7.641 4.765v-8.13h1.643v1.171q.197-.33.527-.621.338-.29.825-.472.496-.18 1.14-.181.763 0 1.408.307.653.299 1.046.944.393.637.393 1.651v5.331h-1.683v-5.15q0-.873-.472-1.298-.464-.424-1.203-.424-.495 0-.943.165t-.724.503q-.275.33-.275.834v5.37zm15.086.11q-.723 0-1.164-.189a1.56 1.56 0 0 1-.66-.503 1.85 1.85 0 0 1-.307-.723 5 5 0 0 1-.071-.842v-9.537h1.659v9.364q0 .567.221.865.228.299.691.338l.425.016v1.069a3 3 0 0 1-.409.103 2 2 0 0 1-.385.039m2.629-.11v-8.13h1.62v8.13zm-.039-9.703v-1.659h1.69v1.659zm7.477 12.392q-1.981 0-3.067-.558-1.085-.55-1.085-1.541 0-.433.205-.732.212-.306.495-.503.29-.196.535-.307.243-.117.314-.165a15 15 0 0 0-.346-.196 1.5 1.5 0 0 1-.369-.33q-.165-.212-.165-.551 0-.393.369-.723.378-.339 1.133-.496-.74-.361-1.148-.975a2.3 2.3 0 0 1-.409-1.305q0-.793.448-1.368.448-.582 1.258-.888.818-.307 1.918-.307.81 0 1.345.181.543.18.999.503.149-.055.424-.165.283-.119.614-.252.33-.133.629-.259l.495-.205-.008 1.463-1.415.259q.11.236.173.519.07.284.07.519 0 .708-.385 1.305-.385.59-1.156.944t-1.926.354h-.283a3 3 0 0 1-.291-.024q-.731.024-1.007.173-.275.142-.275.315 0 .22.354.298.354.079 1.164.134.29.024.739.047.456.024 1.006.063 1.337.079 2.037.669.708.59.708 1.564 0 1.118-1.015 1.824-1.014.716-3.082.716m.291-1.03q1.077 0 1.628-.315.55-.306.55-.92a.92.92 0 0 0-.354-.746q-.354-.291-1.061-.339l-2.171-.141a1.3 1.3 0 0 0-.644.141q-.315.158-.519.441a1 1 0 0 0-.205.613q0 .613.677.936.675.33 2.099.33m-.299-5.779q.818 0 1.313-.393.503-.401.503-1.148 0-.771-.503-1.188-.495-.424-1.313-.424-.825 0-1.337.424-.503.424-.503 1.188 0 .723.48 1.132.487.409 1.36.409m6.291 4.12v-8.13h1.643v1.171q.197-.33.527-.621.338-.29.826-.472.495-.18 1.14-.181.762 0 1.407.307.653.299 1.046.944.393.637.393 1.651v5.331h-1.683v-5.15q0-.873-.471-1.298-.465-.424-1.203-.424a2.7 2.7 0 0 0-.944.165q-.449.165-.723.503-.276.33-.276.834v5.37zm12.66.157q-1.156 0-2.037-.495a3.53 3.53 0 0 1-1.376-1.431q-.487-.928-.487-2.21 0-1.266.448-2.233a3.53 3.53 0 0 1 1.297-1.525q.85-.55 2.045-.551 1.171 0 1.981.504.81.503 1.227 1.415.417.904.417 2.139v.558h-5.725q-.007.73.236 1.313.244.575.724.912.487.33 1.211.33.73 0 1.258-.33.534-.33.699-.983h1.557a2.74 2.74 0 0 1-.668 1.416 3.4 3.4 0 0 1-1.266.88 4.2 4.2 0 0 1-1.541.291m-2.21-4.922h4.121q0-.637-.221-1.156a1.78 1.78 0 0 0-.676-.825q-.448-.307-1.132-.307-.7 0-1.164.338a2.14 2.14 0 0 0-.7.865 2.7 2.7 0 0 0-.228 1.085m13.615 4.922q-.786 0-1.399-.283a2.23 2.23 0 0 1-.952-.818q-.346-.534-.346-1.289 0-1.352.952-2.021.959-.667 3.066-.708l1.337-.039v-.59q0-.7-.417-1.1-.417-.402-1.289-.394-.645 0-1.156.299-.512.299-.669.983h-1.454q.047-.81.464-1.36.425-.558 1.163-.842.74-.282 1.73-.283 1.116 0 1.832.307.716.299 1.062.881.354.582.354 1.415v5.685h-1.432l-.125-1.494q-.457.936-1.156 1.297a3.4 3.4 0 0 1-1.565.354m.527-1.171q.385 0 .763-.134.377-.141.684-.378.306-.243.487-.542a1.2 1.2 0 0 0 .197-.613v-1.345l-1.101.024q-.841.008-1.431.173-.582.165-.896.511-.307.345-.307.92 0 .653.448 1.022.456.362 1.156.362m8.895 1.171a4 4 0 0 1-1.172-.181 3 3 0 0 1-.998-.519 2.6 2.6 0 0 1-.692-.857q-.252-.51-.252-1.187v-5.543h1.691v5.362q0 .731.456 1.187t1.376.456q.833 0 1.337-.432.503-.44.503-1.282v-5.291h1.675v8.13h-1.306l-.188-1.573q-.142.638-.511 1.022a2.15 2.15 0 0 1-.865.551q-.496.165-1.054.157m10.257-.157v-11.37h2.375l3.2 9.042 3.247-9.042h2.359v11.37h-1.722v-9.058l-3.145 9.058h-1.47l-3.13-8.987v8.987zm16.027.157q-.787 0-1.4-.283a2.2 2.2 0 0 1-.951-.818q-.346-.534-.346-1.289 0-1.352.951-2.021.96-.667 3.067-.708l1.336-.039v-.59q0-.7-.416-1.1-.417-.402-1.29-.394-.645 0-1.156.299t-.668.983h-1.455q.047-.81.464-1.36.425-.558 1.164-.842.739-.282 1.73-.283 1.116 0 1.832.307.716.299 1.061.881.354.582.354 1.415v5.685h-1.431l-.126-1.494q-.456.936-1.156 1.297a3.4 3.4 0 0 1-1.564.354m.526-1.171q.385 0 .763-.134.378-.141.684-.378.307-.243.488-.542.188-.299.196-.613v-1.345l-1.101.024q-.84.008-1.431.173-.581.165-.896.511-.306.345-.307.92 0 .653.449 1.022.456.362 1.155.362m5.908 1.014v-8.13h1.612v1.667q.204-.599.566-.999a2.4 2.4 0 0 1 .857-.613 2.5 2.5 0 0 1 1.03-.213q.165 0 .314.024.15.015.236.063v1.62a.8.8 0 0 0-.267-.063 7 7 0 0 0-.275-.024 3.5 3.5 0 0 0-.975.055 2.1 2.1 0 0 0-.763.315 1.5 1.5 0 0 0-.488.574q-.165.353-.165.833v4.891zm9.476.157q-1.14 0-1.989-.487a3.38 3.38 0 0 1-1.321-1.431q-.472-.936-.472-2.265 0-1.281.449-2.241a3.4 3.4 0 0 1 1.289-1.486q.849-.534 2.052-.535 1.149 0 1.99.504.84.495 1.305 1.454.464.952.464 2.304 0 1.234-.433 2.178a3.37 3.37 0 0 1-1.274 1.478q-.833.527-2.06.527m.008-1.297q.7 0 1.164-.362.463-.37.7-1.03.236-.668.236-1.541 0-.81-.213-1.47-.204-.669-.668-1.062-.456-.393-1.219-.393-.699 0-1.179.362-.473.353-.708 1.014-.236.652-.236 1.549 0 .794.213 1.462.211.669.676 1.07.471.4 1.234.401m8.938 1.297q-1.1 0-1.958-.479-.857-.488-1.344-1.424-.488-.943-.488-2.288 0-1.265.448-2.225a3.5 3.5 0 0 1 1.306-1.494q.85-.534 2.036-.535.92 0 1.628.362.707.354 1.148.991.448.636.542 1.486h-1.462a1.8 1.8 0 0 0-.299-.747 1.7 1.7 0 0 0-.621-.55 1.9 1.9 0 0 0-.92-.213q-.983 0-1.596.716-.614.715-.614 2.194 0 1.352.574 2.154t1.659.802q.536 0 .92-.22.386-.22.614-.566.236-.346.299-.716h1.431a3 3 0 0 1-.543 1.439 3 3 0 0 1-1.148.967q-.708.346-1.612.346m4.929-.157v-2.029h1.942v2.029z"/><path fill="#2E6BFF" d="M278.909 332.109v-11.37h2.273l5.189 7.525v-7.525h2.296v11.37h-2.068l-5.402-7.824v7.824zm15.006.157q-.565 0-1.116-.173a3.3 3.3 0 0 1-.991-.511 2.6 2.6 0 0 1-.723-.833 2.4 2.4 0 0 1-.268-1.148v-5.622h2.296v5.331q0 .565.37.928.37.361 1.085.361.676 0 1.069-.346.401-.353.401-.983v-5.291h2.273v8.13h-1.73l-.268-1.612q-.141.715-.534 1.101a2.06 2.06 0 0 1-.889.519q-.495.149-.975.149m6.403-.157v-8.13h2.249v1.148q.37-.535.991-.92.629-.386 1.58-.386.417 0 .849.15.433.149.81.44.385.283.621.716a3.2 3.2 0 0 1 1.03-.928q.645-.378 1.431-.378.456 0 .92.15.472.149.865.487.393.339.629.905.244.558.244 1.383v5.363h-2.296v-5.08q0-.487-.196-.778a1.06 1.06 0 0 0-.488-.425 1.5 1.5 0 0 0-.621-.133q-.307 0-.621.126a1.25 1.25 0 0 0-.535.385q-.22.267-.22.7v5.205h-2.288v-5.284a.98.98 0 0 0-.197-.621 1.2 1.2 0 0 0-.495-.378 1.4 1.4 0 0 0-.598-.133q-.314 0-.629.133a1.25 1.25 0 0 0-.527.401q-.212.268-.212.677v5.205zm17.818.157q-1.212 0-2.131-.503a3.6 3.6 0 0 1-1.423-1.439q-.512-.928-.512-2.186 0-1.219.464-2.194a3.7 3.7 0 0 1 1.353-1.549q.88-.573 2.131-.574 1.242 0 2.083.527.842.519 1.274 1.455.433.928.433 2.146v.622h-5.465q0 .62.204 1.085.205.456.59.707.393.244.944.244a2.04 2.04 0 0 0 1.03-.252q.44-.25.621-.825h2.068a2.86 2.86 0 0 1-.692 1.478 3.6 3.6 0 0 1-1.337.936 4.3 4.3 0 0 1-1.635.322m-1.793-5.064h3.318a2.1 2.1 0 0 0-.189-.896 1.44 1.44 0 0 0-.55-.645q-.361-.236-.912-.236-.527 0-.904.26a1.7 1.7 0 0 0-.574.66 1.9 1.9 0 0 0-.189.857m.825-4.175 1.62-2.288h2.367l-2.335 2.288zm6.293 9.082v-8.13h2.21v1.926q.196-.621.55-1.085a2.5 2.5 0 0 1 .873-.731 2.46 2.46 0 0 1 1.156-.268q.11 0 .204.016a.4.4 0 0 1 .15.032v2.185a.5.5 0 0 0-.173-.039l-.173-.016q-.676-.054-1.156.04t-.778.322a1.3 1.3 0 0 0-.433.558 2 2 0 0 0-.134.739v4.451zm10.012.157q-1.195 0-2.084-.511a3.5 3.5 0 0 1-1.368-1.447q-.48-.936-.479-2.217 0-1.281.479-2.241a3.64 3.64 0 0 1 1.368-1.494q.89-.534 2.092-.535 1.203 0 2.083.527a3.48 3.48 0 0 1 1.361 1.478q.48.96.479 2.265 0 1.227-.471 2.17a3.5 3.5 0 0 1-1.345 1.47q-.873.535-2.115.535m.008-1.706q.605 0 .975-.354.369-.354.534-.928.166-.582.166-1.266 0-.645-.15-1.218a1.9 1.9 0 0 0-.519-.928q-.37-.354-1.006-.354-.606 0-.983.338-.369.33-.543.904a4.3 4.3 0 0 0-.173 1.258q0 .637.158 1.227.157.582.527.951.369.37 1.014.37m10.715 1.549v-8.516h-2.029v-1.297q.975 0 1.573-.181.605-.189.904-.535a1.54 1.54 0 0 0 .354-.841h1.525v11.37z"/><path fill="#FAFAFA" d="M0 0h552v882H0z"/><path fill="#212B36" d="m133.059 373-6.609-19.113h3.688l5.115 14.632 5.089-14.632h3.701L137.434 373zm17.936.264q-2.036 0-3.582-.846a6.07 6.07 0 0 1-2.392-2.419q-.86-1.559-.86-3.674 0-2.049.78-3.688.793-1.653 2.274-2.604 1.48-.965 3.582-.965 2.088 0 3.503.886 1.414.872 2.141 2.445.727 1.56.727 3.609v1.044h-9.187q0 1.044.344 1.824.344.767.991 1.19.662.41 1.587.409.99 0 1.731-.423t1.044-1.388h3.477q-.239 1.455-1.163 2.485a6.06 6.06 0 0 1-2.248 1.573 7.2 7.2 0 0 1-2.749.542m-3.014-8.512h5.578q0-.82-.317-1.507a2.4 2.4 0 0 0-.925-1.084q-.608-.396-1.533-.396-.886 0-1.52.436a2.87 2.87 0 0 0-.965 1.11 3.16 3.16 0 0 0-.318 1.441M159.948 373v-13.668h3.794v1.93q.317-.502.819-.965.516-.476 1.296-.78.78-.303 1.85-.304 1.256 0 2.34.49a4 4 0 0 1 1.771 1.546q.674 1.044.674 2.736V373h-3.859v-8.539q0-1.11-.661-1.665-.661-.556-1.613-.556-.635 0-1.229.225a2.27 2.27 0 0 0-.952.674q-.37.45-.37 1.111V373zm21.076.145q-1.81 0-2.802-.462-.978-.463-1.362-1.296-.37-.832-.37-1.929v-7.442h-2.221v-2.684h2.34l.978-4.124h2.75v4.111h3.04v2.697h-3.04l.026 7.283q0 .502.119.753a.65.65 0 0 0 .396.318q.279.066.701.066h1.837v2.379q-.277.118-.832.225-.556.105-1.56.105m10.942.119q-2.035 0-3.582-.846a6.07 6.07 0 0 1-2.392-2.419q-.86-1.559-.86-3.674 0-2.049.78-3.688.793-1.653 2.274-2.604 1.48-.965 3.582-.965 2.088 0 3.503.886 1.414.872 2.141 2.445.727 1.56.727 3.609v1.044h-9.187q0 1.044.344 1.824.344.767.991 1.19.661.41 1.587.409.992 0 1.731-.423.741-.423 1.044-1.388h3.477q-.238 1.455-1.163 2.485a6.06 6.06 0 0 1-2.247 1.573 7.2 7.2 0 0 1-2.75.542m-3.014-8.512h5.579q0-.82-.318-1.507a2.4 2.4 0 0 0-.925-1.084q-.608-.396-1.533-.396-.886 0-1.52.436a2.87 2.87 0 0 0-.965 1.11 3.16 3.16 0 0 0-.318 1.441m23.977 8.512q-2.035 0-3.582-.846a6.07 6.07 0 0 1-2.392-2.419q-.86-1.559-.859-3.674 0-2.049.779-3.688.793-1.653 2.274-2.604 1.48-.965 3.582-.965 2.088 0 3.503.886 1.415.872 2.141 2.445.727 1.56.727 3.609v1.044h-9.186q0 1.044.343 1.824a2.7 2.7 0 0 0 .992 1.19q.66.41 1.586.409.991 0 1.731-.423t1.045-1.388h3.476q-.238 1.455-1.163 2.485a6.06 6.06 0 0 1-2.247 1.573 7.2 7.2 0 0 1-2.75.542m-3.013-8.512h5.578q0-.82-.318-1.507a2.4 2.4 0 0 0-.925-1.084q-.607-.396-1.533-.396-.886 0-1.52.436a2.9 2.9 0 0 0-.965 1.11q-.33.688-.317 1.441m17.423 8.393q-1.81 0-2.802-.462-.978-.463-1.362-1.296-.37-.832-.37-1.929v-7.442h-2.22v-2.684h2.339l.978-4.124h2.75v4.111h3.04v2.697h-3.04l.026 7.283q0 .502.119.753a.65.65 0 0 0 .397.318q.277.066.7.066h1.837v2.379q-.277.118-.832.225-.555.105-1.56.105m15.124.119q-1.295 0-2.353-.489a3.9 3.9 0 0 1-1.652-1.414q-.608-.939-.608-2.274 0-2.246 1.679-3.41 1.679-1.176 5.3-1.216l1.719-.026v-.82q0-.939-.556-1.441-.541-.515-1.705-.502a3.66 3.66 0 0 0-1.599.397q-.753.382-1.044 1.335h-3.212q.08-1.48.859-2.433.793-.965 2.128-1.427 1.335-.476 3.053-.476 2.09 0 3.358.529 1.269.515 1.837 1.493.582.966.582 2.3V373h-3.226l-.317-2.353q-.7 1.48-1.758 2.049-1.044.568-2.485.568m1.309-2.538q.515 0 1.004-.185.503-.198.899-.515.397-.33.622-.74.237-.41.251-.846v-2.023l-1.388.027a7.3 7.3 0 0 0-1.798.238q-.833.211-1.348.7-.502.49-.502 1.322 0 .952.647 1.494.661.528 1.613.528m15.555 2.538q-1.903 0-3.397-.846t-2.353-2.419q-.846-1.586-.846-3.78 0-2.115.82-3.727.82-1.614 2.3-2.512 1.493-.912 3.476-.912 1.719 0 2.961.701a5.2 5.2 0 0 1 1.969 1.89 5.8 5.8 0 0 1 .833 2.657h-3.212a3.4 3.4 0 0 0-.383-1.071 2.4 2.4 0 0 0-.82-.886q-.529-.356-1.321-.356-1.349 0-2.195 1.044-.832 1.03-.832 3.146 0 1.995.819 3.172.82 1.163 2.287 1.163.78 0 1.295-.383.53-.384.82-.912a3.4 3.4 0 0 0 .37-1.005h3.133a5.4 5.4 0 0 1-.82 2.565 5.26 5.26 0 0 1-1.983 1.81q-1.242.661-2.921.661m8.432-.264v-19.642h3.833v7.944q.33-.476.833-.939a4.2 4.2 0 0 1 1.256-.793q.753-.317 1.837-.317 1.308 0 2.379.516a4.13 4.13 0 0 1 1.732 1.467q.66.964.661 2.353V373h-3.873v-8.843q0-.925-.674-1.414-.662-.503-1.613-.503-.621 0-1.203.225a2.2 2.2 0 0 0-.952.687q-.356.45-.356 1.124V373zm19.625.264q-1.295 0-2.353-.489a3.9 3.9 0 0 1-1.652-1.414q-.608-.939-.608-2.274 0-2.246 1.679-3.41 1.679-1.176 5.3-1.216l1.719-.026v-.82q0-.939-.555-1.441-.543-.515-1.706-.502a3.66 3.66 0 0 0-1.599.397q-.753.382-1.044 1.335h-3.212q.08-1.48.859-2.433.793-.965 2.128-1.427 1.335-.476 3.053-.476 2.09 0 3.358.529 1.269.515 1.837 1.493.582.966.582 2.3V373h-3.225l-.318-2.353q-.7 1.48-1.758 2.049-1.044.568-2.485.568m1.309-2.538q.515 0 1.004-.185.503-.198.899-.515.397-.33.622-.74.237-.41.251-.846v-2.023l-1.388.027a7.3 7.3 0 0 0-1.798.238q-.832.211-1.348.7-.502.49-.502 1.322 0 .952.647 1.494.661.528 1.613.528m15.012 2.419q-1.811 0-2.802-.462-.979-.463-1.362-1.296-.37-.832-.37-1.929v-7.442h-2.221v-2.684h2.34l.978-4.124h2.749v4.111h3.041v2.697h-3.041l.027 7.283q0 .502.119.753a.65.65 0 0 0 .396.318q.278.066.701.066h1.837v2.379q-.277.118-.833.225-.555.105-1.559.105m17.19.119q-2.036 0-3.582-.846a6.07 6.07 0 0 1-2.393-2.419q-.86-1.559-.859-3.674 0-2.049.78-3.688.793-1.653 2.273-2.604 1.48-.965 3.582-.965 2.089 0 3.503.886 1.414.872 2.142 2.445.726 1.56.727 3.609v1.044h-9.187q0 1.044.344 1.824.343.767.991 1.19.661.41 1.586.409.991 0 1.732-.423.74-.423 1.044-1.388h3.476q-.237 1.455-1.163 2.485a6.06 6.06 0 0 1-2.247 1.573 7.2 7.2 0 0 1-2.749.542m-3.014-8.512h5.578a3.6 3.6 0 0 0-.317-1.507 2.4 2.4 0 0 0-.925-1.084q-.609-.396-1.534-.396-.885 0-1.52.436a2.9 2.9 0 0 0-.965 1.11q-.33.688-.317 1.441M329.848 373v-13.668h3.794v1.93a4.8 4.8 0 0 1 .819-.965q.516-.476 1.296-.78.779-.303 1.85-.304 1.256 0 2.34.49a4 4 0 0 1 1.771 1.546q.674 1.044.674 2.736V373h-3.86v-8.539q0-1.11-.661-1.665-.66-.556-1.612-.556-.635 0-1.229.225a2.27 2.27 0 0 0-.952.674q-.37.45-.37 1.111V373zm25.996.238q-1.507 0-2.392-.357-.886-.357-1.309-.938a3.1 3.1 0 0 1-.542-1.309 9 9 0 0 1-.119-1.467v-15.809h3.781v15.333q0 .753.317 1.229.33.463 1.229.569l.648.039v2.379a8 8 0 0 1-.806.225 3.2 3.2 0 0 1-.807.106m4.249-.238v-13.668h3.688V373zm-.039-15.624V353.9h3.753v3.476zm13.289 20.145q-3.648 0-5.552-.926-1.89-.925-1.89-2.432 0-.7.357-1.176.37-.476.859-.754.502-.29.912-.436a8 8 0 0 0 .529-.211q-.212-.12-.621-.344a2.9 2.9 0 0 1-.727-.634q-.331-.41-.331-1.058 0-.727.688-1.348.7-.622 2.114-.859-1.348-.635-2.062-1.719-.7-1.084-.7-2.22 0-1.348.846-2.314.846-.965 2.313-1.467t3.318-.502q1.401 0 2.3.304a7.4 7.4 0 0 1 1.678.767q.304-.12.794-.304.502-.2 1.083-.423l1.15-.463.992-.423-.027 2.987-2.353.384q.133.357.212.766.08.41.079.674 0 1.19-.7 2.221-.688 1.031-2.062 1.666-1.375.634-3.424.634-.238 0-.661-.013a10 10 0 0 1-.687-.04q-.767.04-1.071.198-.291.16-.291.371 0 .317.595.423.595.091 1.798.171.436.027 1.19.066.753.04 1.652.106 2.511.172 3.741 1.243 1.242 1.058 1.242 2.67 0 1.916-1.824 3.159-1.81 1.256-5.459 1.256m.621-2.155q1.6 0 2.287-.396.7-.397.7-1.137 0-.621-.541-1.005-.53-.396-1.534-.462l-3.132-.212q-.622-.027-1.084.185a1.77 1.77 0 0 0-.727.582 1.4 1.4 0 0 0-.252.793q0 .859 1.045 1.256 1.044.396 3.238.396m-.727-9.61q1.098 0 1.758-.594.661-.609.661-1.639 0-1.071-.661-1.719-.66-.647-1.758-.647t-1.771.647q-.674.648-.674 1.719 0 1.017.647 1.625.661.608 1.798.608M383.624 373v-13.668h3.794v1.93a4.8 4.8 0 0 1 .819-.965q.516-.476 1.296-.78.78-.303 1.85-.304 1.255 0 2.34.49a4 4 0 0 1 1.771 1.546q.674 1.044.674 2.736V373h-3.86v-8.539q0-1.11-.66-1.665-.662-.556-1.613-.556-.635 0-1.229.225a2.27 2.27 0 0 0-.952.674q-.37.45-.37 1.111V373zm21.949.264q-2.035 0-3.582-.846a6.07 6.07 0 0 1-2.392-2.419q-.86-1.559-.859-3.674 0-2.049.78-3.688.792-1.653 2.273-2.604 1.48-.965 3.582-.965 2.089 0 3.503.886 1.415.872 2.141 2.445.727 1.56.727 3.609v1.044h-9.186q0 1.044.343 1.824.345.767.992 1.19.66.41 1.586.409.991 0 1.732-.423.74-.423 1.044-1.388h3.476q-.237 1.455-1.163 2.485a6.06 6.06 0 0 1-2.247 1.573 7.2 7.2 0 0 1-2.75.542m-3.013-8.512h5.578a3.6 3.6 0 0 0-.317-1.507 2.4 2.4 0 0 0-.926-1.084q-.607-.396-1.533-.396-.885 0-1.52.436a2.9 2.9 0 0 0-.965 1.11q-.33.688-.317 1.441M144.35 403.959l3.45-9.557h1.56l3.443 9.557h-1.428l-.898-2.505h-3.787l-.906 2.505zm2.69-3.787h3.066l-1.533-4.395zm8.213 3.787-2.498-6.834h1.308l1.732 5.043h.092l1.732-5.043h1.308l-2.485 6.834zm4.941 0v-6.834h1.361v6.834zm-.033-8.156v-1.394h1.421v1.394zm5.967 8.202q-.76 0-1.177-.205a1.16 1.16 0 0 1-.581-.588q-.166-.39-.166-.938v-4.131h-1.11v-1.018h1.157l.343-2.009h1.031v2.003h1.534v1.024h-1.534l.007 4.078q0 .338.066.495a.36.36 0 0 0 .238.199q.172.039.463.039h.793v.919a1.8 1.8 0 0 1-.39.093 5 5 0 0 1-.674.039m5.238.086q-.958 0-1.672-.41a2.8 2.8 0 0 1-1.11-1.202q-.397-.787-.397-1.904 0-1.077.377-1.883a2.86 2.86 0 0 1 1.084-1.25q.714-.449 1.725-.449.964 0 1.672.423.707.416 1.097 1.223.39.8.39 1.936 0 1.038-.364 1.831a2.83 2.83 0 0 1-1.07 1.242q-.701.444-1.732.443m.007-1.09q.588 0 .978-.304.39-.31.588-.866.198-.562.198-1.296 0-.68-.178-1.235a1.85 1.85 0 0 0-.562-.893q-.383-.33-1.024-.33-.588 0-.992.304-.396.297-.594.852-.2.549-.199 1.302 0 .667.179 1.23.178.561.568.899.397.337 1.038.337m4.333 2.67.747-1.679-.601-.04v-1.573h1.639v1.375l-1.177 1.917zm8.611-1.619q-.609 0-.978-.159a1.3 1.3 0 0 1-.556-.423 1.6 1.6 0 0 1-.257-.608 4 4 0 0 1-.06-.707v-8.017h1.395v7.871q0 .477.185.727.192.251.581.284l.357.014v.899q-.165.052-.343.085a1.7 1.7 0 0 1-.324.034m4.126.039q-.66 0-1.176-.238a1.87 1.87 0 0 1-.8-.687q-.291-.45-.291-1.084 0-1.137.8-1.699.807-.561 2.578-.594l1.123-.033v-.496q0-.589-.35-.925t-1.084-.331q-.541 0-.972.251-.429.252-.561.826h-1.223q.039-.68.39-1.143a2.17 2.17 0 0 1 .978-.707q.621-.238 1.454-.238.939 0 1.54.258.601.25.892.74.298.49.298 1.19v4.778h-1.203l-.106-1.256q-.383.787-.972 1.091-.588.297-1.315.297m.443-.985q.324 0 .641-.112.317-.119.575-.317.258-.205.41-.456a1 1 0 0 0 .165-.516v-1.13l-.925.02a4.7 4.7 0 0 0-1.203.145q-.489.14-.753.43-.258.291-.258.773 0 .549.377.859.383.304.971.304m8.115.853v-6.834h1.375v.985q.29-.45.793-.78.502-.337 1.295-.337.37 0 .747.126.383.125.701.376.323.245.508.608.324-.489.866-.799a2.4 2.4 0 0 1 1.216-.311q.364 0 .754.119.39.113.72.39.337.272.542.753.212.483.212 1.223v4.481h-1.421v-4.329q0-.561-.192-.879a1 1 0 0 0-.489-.443 1.55 1.55 0 0 0-.635-.132q-.303 0-.634.119-.33.118-.562.397-.231.278-.231.753v4.514h-1.415v-4.633a1 1 0 0 0-.204-.634q-.199-.258-.503-.384a1.45 1.45 0 0 0-.594-.132q-.331 0-.661.132a1.3 1.3 0 0 0-.556.417q-.218.277-.218.72v4.514zm13.464.132q-.661 0-1.177-.238a1.87 1.87 0 0 1-.799-.687q-.291-.45-.291-1.084 0-1.137.8-1.699.805-.561 2.577-.594l1.124-.033v-.496q0-.589-.351-.925-.35-.337-1.083-.331-.543 0-.972.251-.43.252-.562.826h-1.222q.039-.68.39-1.143.356-.469.978-.707.621-.238 1.454-.238.938 0 1.54.258.601.25.892.74.297.49.297 1.19v4.778h-1.203l-.105-1.256q-.384.787-.972 1.091-.588.297-1.315.297m.443-.985q.323 0 .641-.112.317-.119.575-.317a1.8 1.8 0 0 0 .41-.456q.157-.251.165-.516v-1.13l-.925.02a4.7 4.7 0 0 0-1.203.145q-.49.14-.754.43-.258.291-.258.773 0 .549.377.859.384.304.972.304m4.965.853v-6.834h1.355v1.401q.171-.502.476-.839a2 2 0 0 1 .72-.516q.41-.177.866-.178.139 0 .264.02.126.013.199.053v1.361a.7.7 0 0 0-.225-.053l-.232-.02a2.9 2.9 0 0 0-.819.047q-.37.08-.641.264a1.24 1.24 0 0 0-.41.483 1.65 1.65 0 0 0-.139.7v4.111zm5.241 0v-9.821h1.414v6.245l3.02-3.258h1.587l-2.472 2.637 2.617 4.197h-1.467l-2.056-3.298-1.229 1.276v2.022zm10.138.132q-.972 0-1.712-.416a2.96 2.96 0 0 1-1.157-1.203q-.41-.78-.409-1.857 0-1.064.376-1.877a2.96 2.96 0 0 1 1.091-1.282q.713-.463 1.718-.463.985 0 1.666.423t1.031 1.19q.35.76.35 1.797v.47h-4.811q-.007.614.198 1.103.204.483.608.767.41.277 1.018.277.614 0 1.057-.277.45-.278.588-.826h1.309a2.3 2.3 0 0 1-.562 1.189q-.443.489-1.064.741a3.5 3.5 0 0 1-1.295.244m-1.857-4.137h3.463q0-.536-.185-.972a1.5 1.5 0 0 0-.569-.694q-.377-.257-.951-.257-.59 0-.979.284-.39.284-.588.727a2.3 2.3 0 0 0-.191.912m8.761 4.051q-.76 0-1.176-.205a1.16 1.16 0 0 1-.582-.588 2.4 2.4 0 0 1-.165-.938v-4.131h-1.11v-1.018h1.156l.344-2.009h1.031v2.003h1.533v1.024h-1.533l.007 4.078q0 .338.066.495a.36.36 0 0 0 .238.199q.171.039.462.039h.793v.919a1.8 1.8 0 0 1-.39.093 5 5 0 0 1-.674.039m2.617 2.082v-8.962h1.415l.013 1.137q.124-.224.324-.443a2.5 2.5 0 0 1 1.097-.714q.357-.112.786-.112.806 0 1.421.377.621.37.965 1.143.35.767.35 1.95 0 1.19-.35 1.996-.343.806-.985 1.222-.64.41-1.52.41-.423 0-.76-.119a2.3 2.3 0 0 1-.595-.31 2.8 2.8 0 0 1-.442-.423 3.3 3.3 0 0 1-.298-.456v3.304zm3.219-3.073q.786 0 1.289-.608.508-.615.508-1.917 0-1.117-.469-1.764-.462-.655-1.328-.655-.892 0-1.348.681-.456.674-.456 1.738 0 .695.198 1.269a2.1 2.1 0 0 0 .608.912q.403.344.998.344m6.545 1.038q-.609 0-.979-.159a1.3 1.3 0 0 1-.555-.423 1.6 1.6 0 0 1-.258-.608 4 4 0 0 1-.059-.707v-8.017h1.395v7.871q0 .477.185.727.19.251.581.284l.357.014v.899q-.165.052-.344.085a1.7 1.7 0 0 1-.323.034m4.126.039q-.661 0-1.176-.238a1.87 1.87 0 0 1-.8-.687q-.291-.45-.291-1.084 0-1.137.8-1.699.806-.561 2.577-.594l1.124-.033v-.496q0-.589-.35-.925t-1.084-.331q-.542 0-.972.251-.429.252-.562.826h-1.222q.039-.68.39-1.143a2.17 2.17 0 0 1 .978-.707q.621-.238 1.454-.238.939 0 1.54.258.601.25.892.74.297.49.297 1.19v4.778h-1.202l-.106-1.256q-.384.787-.972 1.091-.588.297-1.315.297m.443-.985q.324 0 .641-.112.317-.119.575-.317a1.8 1.8 0 0 0 .41-.456q.158-.251.165-.516v-1.13l-.925.02a4.7 4.7 0 0 0-1.203.145q-.489.14-.754.43-.257.291-.257.773 0 .549.376.859.384.304.972.304m7.774.985q-.925 0-1.646-.403a2.86 2.86 0 0 1-1.13-1.196q-.41-.793-.41-1.923 0-1.064.377-1.871a2.94 2.94 0 0 1 1.097-1.256q.714-.449 1.712-.449.774 0 1.368.304.595.297.965.833.377.535.456 1.249h-1.229a1.5 1.5 0 0 0-.251-.628 1.45 1.45 0 0 0-.522-.463 1.6 1.6 0 0 0-.774-.178q-.826 0-1.341.601-.516.602-.516 1.844 0 1.137.483 1.811.482.674 1.394.674.45 0 .773-.185a1.5 1.5 0 0 0 .516-.476q.198-.29.251-.601h1.203a2.53 2.53 0 0 1-1.421 2.022 3.05 3.05 0 0 1-1.355.291m7.316 0q-.972 0-1.712-.416a2.95 2.95 0 0 1-1.156-1.203q-.41-.78-.41-1.857 0-1.064.377-1.877a2.95 2.95 0 0 1 1.09-1.282q.714-.463 1.719-.463.984 0 1.665.423t1.031 1.19q.35.76.35 1.797v.47h-4.811a2.8 2.8 0 0 0 .198 1.103q.206.483.608.767.41.277 1.018.277.615 0 1.058-.277a1.3 1.3 0 0 0 .588-.826h1.308a2.3 2.3 0 0 1-.561 1.189 2.9 2.9 0 0 1-1.064.741 3.5 3.5 0 0 1-1.296.244m-1.857-4.137h3.463q0-.536-.185-.972a1.5 1.5 0 0 0-.568-.694q-.377-.257-.952-.257-.588 0-.978.284t-.588.727a2.3 2.3 0 0 0-.192.912m74.347 4.137q-1.342 0-2.122-.918-.774-.926-.773-2.664 0-1.064.31-1.85.317-.794.932-1.23t1.534-.436q.456 0 .819.112.363.113.635.291.27.179.456.384.184.204.277.383v-4.025h1.428v9.821h-1.064l-.159-1.401q-.072.225-.225.489a2.002 2.002 0 0 1-1.07.892 2.8 2.8 0 0 1-.978.152m.27-1.064q.952 0 1.375-.595.423-.601.423-1.969-.006-.774-.192-1.309-.177-.535-.568-.806-.383-.278-1.011-.278-.786 0-1.289.569-.495.561-.496 1.824 0 1.243.45 1.903.456.661 1.308.661m8.098 1.064q-.972 0-1.712-.416a2.95 2.95 0 0 1-1.156-1.203q-.41-.78-.41-1.857 0-1.064.377-1.877a2.95 2.95 0 0 1 1.09-1.282q.714-.463 1.719-.463.984 0 1.665.423t1.031 1.19q.35.76.35 1.797v.47h-4.811q-.007.614.198 1.103.205.483.608.767.41.277 1.018.277.615 0 1.057-.277.45-.278.589-.826h1.308a2.3 2.3 0 0 1-.562 1.189 2.9 2.9 0 0 1-1.064.741 3.5 3.5 0 0 1-1.295.244m-1.857-4.137h3.463q0-.536-.185-.972a1.5 1.5 0 0 0-.568-.694q-.378-.257-.952-.257-.588 0-.978.284t-.588.727a2.3 2.3 0 0 0-.192.912m11.234 4.005-2.498-6.834h1.308l1.732 5.043h.092l1.732-5.043h1.309l-2.485 6.834zm7.714.132q-.972 0-1.712-.416a2.96 2.96 0 0 1-1.157-1.203q-.41-.78-.409-1.857 0-1.064.376-1.877a2.96 2.96 0 0 1 1.091-1.282q.714-.463 1.718-.463.985 0 1.666.423t1.031 1.19q.35.76.35 1.797v.47h-4.811q-.007.614.198 1.103.204.483.608.767.41.277 1.018.277.614 0 1.057-.277.45-.278.588-.826h1.309a2.3 2.3 0 0 1-.562 1.189q-.443.489-1.064.741a3.5 3.5 0 0 1-1.295.244m-1.857-4.137h3.463q0-.536-.185-.972a1.5 1.5 0 0 0-.569-.694q-.377-.257-.951-.257-.59 0-.979.284-.39.284-.588.727a2.3 2.3 0 0 0-.191.912m6.421 4.005v-6.834h1.382v.985q.165-.277.443-.522a2.3 2.3 0 0 1 .693-.397q.416-.152.959-.152.64 0 1.183.258.548.251.879.793.33.536.33 1.388v4.481h-1.414v-4.329q0-.734-.397-1.09-.39-.357-1.011-.357-.416 0-.793.138a1.4 1.4 0 0 0-.608.423q-.231.278-.231.701v4.514zm10.021.046q-.76 0-1.177-.205a1.16 1.16 0 0 1-.581-.588 2.4 2.4 0 0 1-.166-.938v-4.131h-1.11v-1.018h1.157l.343-2.009h1.031v2.003h1.534v1.024h-1.534l.007 4.078q0 .338.066.495a.36.36 0 0 0 .238.199q.172.039.463.039h.793v.919a1.8 1.8 0 0 1-.39.093 5 5 0 0 1-.674.039m5.397.086q-.972 0-1.712-.416a2.96 2.96 0 0 1-1.157-1.203q-.41-.78-.409-1.857 0-1.064.376-1.877a2.96 2.96 0 0 1 1.091-1.282q.714-.463 1.718-.463.985 0 1.666.423t1.031 1.19q.35.76.35 1.797v.47h-4.811q-.007.614.198 1.103.205.483.608.767.41.277 1.018.277.615 0 1.057-.277.45-.278.588-.826h1.309a2.3 2.3 0 0 1-.562 1.189q-.443.489-1.064.741a3.5 3.5 0 0 1-1.295.244m-1.857-4.137h3.463q0-.536-.185-.972a1.5 1.5 0 0 0-.569-.694q-.377-.257-.951-.257-.588 0-.978.284t-.589.727a2.3 2.3 0 0 0-.191.912m12.313 4.137q-.972 0-1.712-.416a2.96 2.96 0 0 1-1.157-1.203q-.41-.78-.41-1.857 0-1.064.377-1.877a2.96 2.96 0 0 1 1.091-1.282q.714-.463 1.718-.463.985 0 1.666.423t1.031 1.19q.35.76.35 1.797v.47h-4.812q-.006.614.199 1.103.204.483.608.767.41.277 1.018.277.614 0 1.057-.277.45-.278.588-.826h1.309q-.12.7-.562 1.189t-1.064.741a3.5 3.5 0 0 1-1.295.244m-1.858-4.137h3.464q0-.536-.185-.972a1.5 1.5 0 0 0-.569-.694q-.376-.257-.952-.257-.588 0-.978.284t-.588.727a2.3 2.3 0 0 0-.192.912m8.762 4.051q-.76 0-1.176-.205a1.16 1.16 0 0 1-.582-.588 2.4 2.4 0 0 1-.165-.938v-4.131h-1.11v-1.018h1.156l.344-2.009h1.031v2.003h1.533v1.024h-1.533l.006 4.078q0 .338.066.495a.36.36 0 0 0 .238.199q.172.039.463.039h.793v.919a1.8 1.8 0 0 1-.39.093 5 5 0 0 1-.674.039m-206.788 16.086q-1.341 0-2.121-.918-.773-.926-.773-2.664 0-1.064.31-1.85.317-.794.932-1.23t1.533-.436q.457 0 .82.112.363.113.634.291.272.179.456.384.185.204.278.383v-4.025h1.428v9.821h-1.064l-.159-1.401q-.073.225-.225.489a1.9 1.9 0 0 1-.41.502 2 2 0 0 1-.66.39q-.403.152-.979.152m.271-1.064q.952 0 1.375-.595.423-.601.423-1.969-.006-.774-.192-1.309-.178-.535-.568-.806-.384-.278-1.011-.278-.787 0-1.289.569-.495.561-.496 1.824 0 1.243.45 1.903.456.661 1.308.661m5.344-5.373-.416-3.252h1.619l-.429 3.252zm4.299 6.437q-.661 0-1.177-.238a1.87 1.87 0 0 1-.8-.687q-.29-.45-.29-1.084 0-1.137.799-1.699.807-.561 2.578-.594l1.123-.033v-.496q0-.589-.35-.925t-1.084-.331a1.9 1.9 0 0 0-.971.251q-.43.252-.562.826h-1.223q.04-.68.39-1.143a2.17 2.17 0 0 1 .978-.707q.622-.238 1.454-.238.939 0 1.54.258.602.25.892.74.298.49.298 1.19v4.778h-1.203l-.106-1.256q-.383.787-.971 1.091a2.9 2.9 0 0 1-1.315.297m.442-.985q.324 0 .641-.112.318-.119.575-.317.258-.205.41-.456a1 1 0 0 0 .165-.516v-1.13l-.925.02a4.7 4.7 0 0 0-1.203.145q-.489.14-.753.43-.258.291-.258.773 0 .549.377.859.383.304.971.304m7.775.985q-.926 0-1.646-.403a2.86 2.86 0 0 1-1.13-1.196q-.41-.793-.41-1.923 0-1.064.377-1.871a2.94 2.94 0 0 1 1.097-1.256q.713-.449 1.712-.449.772 0 1.368.304.594.297.965.833.376.535.456 1.249h-1.23a1.5 1.5 0 0 0-.251-.628 1.43 1.43 0 0 0-.522-.463 1.6 1.6 0 0 0-.773-.178q-.826 0-1.342.601-.515.602-.515 1.844 0 1.137.482 1.811.483.674 1.395.674.449 0 .773-.185t.515-.476q.199-.29.251-.601h1.203a2.53 2.53 0 0 1-1.421 2.022 3.04 3.04 0 0 1-1.354.291m4.316-.132v-9.821h1.395v3.985q.165-.27.442-.515.285-.245.688-.397.41-.159.951-.158.667 0 1.203.251.543.245.859.713.324.464.324 1.104v4.838h-1.414v-4.58q0-.575-.397-.886-.396-.31-1.017-.31-.417 0-.793.145a1.4 1.4 0 0 0-.602.423q-.225.278-.225.701v4.507zm9.604.132q-.66 0-1.176-.238a1.87 1.87 0 0 1-.8-.687q-.291-.45-.291-1.084 0-1.137.8-1.699.807-.561 2.578-.594l1.123-.033v-.496q0-.589-.35-.925t-1.084-.331a1.9 1.9 0 0 0-.971.251q-.43.252-.562.826h-1.223q.04-.68.39-1.143a2.17 2.17 0 0 1 .978-.707q.621-.238 1.454-.238.939 0 1.54.258.601.25.892.74.298.49.298 1.19v4.778h-1.203l-.106-1.256q-.383.787-.971 1.091a2.9 2.9 0 0 1-1.316.297m.443-.985q.324 0 .641-.112.317-.119.575-.317.258-.205.41-.456a1 1 0 0 0 .165-.516v-1.13l-.925.02a4.7 4.7 0 0 0-1.203.145q-.489.14-.753.43-.258.291-.258.773 0 .549.377.859.383.304.971.304m7.305.899q-.76 0-1.176-.205a1.16 1.16 0 0 1-.582-.588 2.4 2.4 0 0 1-.165-.938v-4.131h-1.11v-1.018h1.156l.344-2.009h1.031v2.003h1.533v1.024h-1.533l.007 4.078q0 .338.066.495a.36.36 0 0 0 .238.199q.171.039.462.039h.793v.919a1.8 1.8 0 0 1-.39.093 5 5 0 0 1-.674.039m8.586.086q-.971 0-1.712-.416a2.96 2.96 0 0 1-1.157-1.203q-.41-.78-.409-1.857 0-1.064.376-1.877a2.96 2.96 0 0 1 1.091-1.282q.714-.463 1.718-.463.985 0 1.666.423t1.031 1.19q.35.76.35 1.797v.47h-4.811q-.007.614.198 1.103.204.483.608.767.41.277 1.018.277.614 0 1.057-.277.45-.278.588-.826h1.309a2.3 2.3 0 0 1-.562 1.189q-.443.489-1.064.741a3.5 3.5 0 0 1-1.295.244m-1.857-4.137h3.463q0-.536-.185-.972a1.5 1.5 0 0 0-.569-.694q-.376-.257-.951-.257-.589 0-.979.284a1.8 1.8 0 0 0-.588.727 2.3 2.3 0 0 0-.191.912m6.421 4.005v-6.834h1.382v.985q.165-.277.443-.522.283-.244.694-.397.416-.152.958-.152.641 0 1.183.258.549.251.879.793.33.536.33 1.388v4.481h-1.414v-4.329q0-.734-.397-1.09-.39-.357-1.011-.357-.416 0-.793.138a1.4 1.4 0 0 0-.608.423q-.231.278-.231.701v4.514zm12.681.093q-.607 0-.978-.159a1.3 1.3 0 0 1-.555-.423 1.6 1.6 0 0 1-.258-.608 4 4 0 0 1-.059-.707v-8.017h1.394v7.871q0 .477.185.727.192.251.582.284l.357.014v.899a3 3 0 0 1-.344.085 1.7 1.7 0 0 1-.324.034m2.21-.093v-6.834h1.361v6.834zm-.033-8.156v-1.394h1.421v1.394zm6.285 10.416q-1.666 0-2.578-.469-.912-.462-.912-1.295 0-.364.172-.615.179-.258.417-.423a3 3 0 0 1 .449-.258 3 3 0 0 0 .264-.139l-.291-.165a1.2 1.2 0 0 1-.31-.277.73.73 0 0 1-.139-.463q0-.33.311-.608.317-.284.951-.416a2.4 2.4 0 0 1-.965-.82 1.94 1.94 0 0 1-.343-1.097q0-.667.377-1.15.376-.489 1.057-.747.687-.258 1.613-.258.68 0 1.13.152.456.153.839.423.126-.046.357-.138.238-.1.516-.212.277-.112.528-.218l.417-.172-.007 1.23-1.19.218q.093.198.146.436.059.238.059.436 0 .595-.324 1.097-.324.496-.971.793-.648.297-1.619.298h-.238a3 3 0 0 1-.245-.02q-.615.02-.846.145-.231.119-.231.265 0 .185.297.251.298.066.978.112.245.02.622.04.382.02.846.053 1.123.066 1.711.561.595.496.595 1.316 0 .938-.852 1.533-.853.601-2.591.601m.244-.866q.906 0 1.369-.264.462-.257.462-.773a.78.78 0 0 0-.297-.628q-.298-.245-.892-.284l-1.825-.119a1.1 1.1 0 0 0-.542.119 1.2 1.2 0 0 0-.436.37.85.85 0 0 0-.172.515q0 .516.569.787.568.277 1.764.277m-.251-4.857q.688 0 1.104-.331.423-.336.423-.965 0-.647-.423-.998-.416-.356-1.104-.356-.693 0-1.123.356-.423.357-.423.998 0 .609.403.952.41.344 1.143.344m5.288 3.463v-6.834h1.381v.985q.165-.277.443-.522.284-.244.694-.397.417-.152.958-.152.642 0 1.183.258.549.251.879.793.331.536.331 1.388v4.481h-1.415v-4.329q0-.734-.396-1.09-.39-.357-1.011-.357-.417 0-.793.138a1.4 1.4 0 0 0-.608.423q-.232.278-.232.701v4.514zm10.641.132q-.972 0-1.712-.416a2.95 2.95 0 0 1-1.156-1.203q-.41-.78-.41-1.857 0-1.064.377-1.877a2.95 2.95 0 0 1 1.09-1.282q.714-.463 1.719-.463.984 0 1.665.423t1.031 1.19q.35.76.35 1.797v.47h-4.811a2.8 2.8 0 0 0 .198 1.103q.206.483.608.767.41.277 1.018.277.615 0 1.058-.277a1.3 1.3 0 0 0 .588-.826h1.308a2.3 2.3 0 0 1-.561 1.189 2.9 2.9 0 0 1-1.064.741 3.5 3.5 0 0 1-1.296.244m-1.857-4.137h3.463q0-.536-.185-.972a1.5 1.5 0 0 0-.568-.694q-.377-.257-.952-.257-.588 0-.978.284t-.588.727a2.3 2.3 0 0 0-.192.912m11.444 4.137q-.661 0-1.177-.238a1.86 1.86 0 0 1-.799-.687q-.291-.45-.291-1.084 0-1.137.8-1.699.805-.561 2.577-.594l1.124-.033v-.496q0-.589-.351-.925-.35-.337-1.084-.331a1.9 1.9 0 0 0-.971.251q-.43.252-.562.826h-1.223q.04-.68.39-1.143.357-.469.979-.707.62-.238 1.454-.238.938 0 1.539.258.602.25.893.74.297.49.297 1.19v4.778h-1.203l-.106-1.256q-.383.787-.971 1.091a2.9 2.9 0 0 1-1.315.297m.443-.985q.323 0 .641-.112.317-.119.575-.317.257-.205.409-.456.159-.251.166-.516v-1.13l-.926.02a4.7 4.7 0 0 0-1.203.145q-.489.14-.753.43-.258.291-.258.773 0 .549.377.859.383.304.972.304m7.476.985a3.4 3.4 0 0 1-.984-.152 2.6 2.6 0 0 1-.84-.436 2.2 2.2 0 0 1-.581-.72 2.2 2.2 0 0 1-.212-.998v-4.66h1.421v4.508q0 .614.383.998.383.383 1.157.383.701 0 1.123-.364.423-.369.423-1.077v-4.448h1.408v6.834h-1.097l-.159-1.322q-.118.535-.429.859a1.8 1.8 0 0 1-.727.463 2.6 2.6 0 0 1-.886.132m8.622-.132v-9.557h1.996l2.69 7.601 2.729-7.601h1.983v9.557h-1.448v-7.614l-2.643 7.614h-1.236l-2.631-7.554v7.554zm13.471.132q-.661 0-1.177-.238a1.86 1.86 0 0 1-.799-.687q-.291-.45-.291-1.084 0-1.137.799-1.699.807-.561 2.578-.594l1.124-.033v-.496q0-.589-.351-.925-.35-.337-1.084-.331a1.9 1.9 0 0 0-.971.251q-.43.252-.562.826h-1.223q.04-.68.39-1.143a2.17 2.17 0 0 1 .978-.707q.622-.238 1.454-.238.939 0 1.54.258.602.25.893.74.297.49.297 1.19v4.778h-1.203l-.106-1.256q-.383.787-.971 1.091a2.9 2.9 0 0 1-1.315.297m.442-.985q.324 0 .642-.112.317-.119.575-.317.257-.205.409-.456.159-.251.166-.516v-1.13l-.926.02a4.7 4.7 0 0 0-1.203.145q-.489.14-.753.43-.258.291-.258.773 0 .549.377.859.383.304.971.304m4.966.853v-6.834h1.355v1.401a2.4 2.4 0 0 1 .475-.839q.312-.344.721-.516.41-.177.866-.178.138 0 .264.02.126.013.198.053v1.361a.7.7 0 0 0-.224-.053l-.232-.02a2.9 2.9 0 0 0-.819.047 1.8 1.8 0 0 0-.641.264 1.24 1.24 0 0 0-.41.483 1.6 1.6 0 0 0-.139.7v4.111zm7.965.132q-.958 0-1.672-.41a2.8 2.8 0 0 1-1.11-1.202q-.397-.787-.397-1.904 0-1.077.377-1.883a2.87 2.87 0 0 1 1.084-1.25q.714-.449 1.725-.449.965 0 1.672.423.707.416 1.097 1.223.39.8.39 1.936 0 1.038-.363 1.831-.364.794-1.071 1.242-.7.444-1.732.443m.007-1.09q.588 0 .978-.304.39-.31.588-.866a3.9 3.9 0 0 0 .199-1.296q0-.68-.179-1.235a1.84 1.84 0 0 0-.562-.893q-.383-.33-1.024-.33-.589 0-.991.304-.397.297-.595.852-.198.549-.199 1.302 0 .667.179 1.23.178.561.568.899.397.337 1.038.337m7.513 1.09q-.926 0-1.646-.403a2.86 2.86 0 0 1-1.13-1.196q-.41-.793-.41-1.923 0-1.064.377-1.871a2.94 2.94 0 0 1 1.097-1.256q.714-.449 1.712-.449.772 0 1.368.304.594.297.965.833.376.535.456 1.249h-1.23a1.5 1.5 0 0 0-.251-.628 1.43 1.43 0 0 0-.522-.463 1.6 1.6 0 0 0-.773-.178q-.826 0-1.342.601-.515.602-.515 1.844 0 1.137.482 1.811.483.674 1.395.674.449 0 .773-.185t.515-.476q.199-.29.252-.601h1.202a2.5 2.5 0 0 1-.456 1.209 2.5 2.5 0 0 1-.965.813 3.04 3.04 0 0 1-1.354.291m4.142-.132v-1.705h1.633v1.705z"/><path fill="#2E6BFF" d="M277.945 403.959v-9.557h1.91l4.362 6.325v-6.325h1.93v9.557h-1.738l-4.54-6.576v6.576zm12.614.132q-.477 0-.939-.145a2.8 2.8 0 0 1-.833-.43 2.2 2.2 0 0 1-.608-.7q-.224-.417-.224-.965v-4.726h1.929v4.481q0 .476.311.78.31.304.912.304.569 0 .899-.291.337-.297.337-.826v-4.448h1.91v6.834h-1.454l-.225-1.355q-.119.601-.449.925a1.7 1.7 0 0 1-.747.437 2.9 2.9 0 0 1-.819.125m5.381-.132v-6.834h1.891v.965q.31-.449.832-.773.53-.324 1.329-.324.35 0 .714.126.363.125.68.37.324.238.522.601.331-.47.866-.78a2.34 2.34 0 0 1 1.203-.317 2.5 2.5 0 0 1 .773.126q.397.125.727.409.331.285.529.76.205.47.205 1.164v4.507h-1.93v-4.269q0-.41-.165-.655a.9.9 0 0 0-.41-.357 1.2 1.2 0 0 0-.522-.112q-.258 0-.522.106a1.06 1.06 0 0 0-.45.324q-.185.224-.185.588v4.375h-1.923v-4.441a.82.82 0 0 0-.165-.522 1 1 0 0 0-.417-.318 1.2 1.2 0 0 0-.502-.112q-.264 0-.529.112a1.04 1.04 0 0 0-.442.337.9.9 0 0 0-.179.569v4.375zm14.977.132q-1.018 0-1.791-.423a3.03 3.03 0 0 1-1.197-1.209q-.429-.78-.429-1.838 0-1.024.39-1.844.396-.825 1.136-1.302.741-.482 1.791-.482 1.045 0 1.752.443.707.436 1.071 1.223.363.779.363 1.804v.522h-4.593q0 .522.172.912.171.384.495.595.331.204.793.205.496 0 .866-.212.37-.211.522-.694h1.738a2.4 2.4 0 0 1-.581 1.243 3 3 0 0 1-1.124.786 3.6 3.6 0 0 1-1.374.271m-1.507-4.256h2.789q0-.41-.159-.754a1.2 1.2 0 0 0-.462-.541q-.305-.2-.767-.199a1.3 1.3 0 0 0-.76.218 1.44 1.44 0 0 0-.483.556 1.6 1.6 0 0 0-.158.72m.694-3.509 1.361-1.924h1.99l-1.963 1.924zm5.289 7.633v-6.834h1.857v1.619a3 3 0 0 1 .463-.912 2.1 2.1 0 0 1 .734-.614q.43-.225.971-.225.093 0 .172.013a.4.4 0 0 1 .126.027v1.837a.4.4 0 0 0-.146-.033l-.145-.013a3.6 3.6 0 0 0-.972.033 1.56 1.56 0 0 0-.654.271 1.1 1.1 0 0 0-.364.469 1.7 1.7 0 0 0-.112.621v3.741zm8.415.132q-1.004 0-1.751-.429a2.95 2.95 0 0 1-1.15-1.216q-.403-.787-.403-1.864t.403-1.884a3.05 3.05 0 0 1 1.15-1.256q.747-.449 1.758-.449t1.751.443q.74.436 1.144 1.242.403.807.403 1.904 0 1.03-.397 1.824-.39.786-1.13 1.236-.733.449-1.778.449m.007-1.434q.508 0 .819-.297a1.7 1.7 0 0 0 .45-.78q.139-.49.139-1.064 0-.543-.126-1.025a1.6 1.6 0 0 0-.436-.78q-.31-.297-.846-.297-.509 0-.826.284-.31.278-.456.76-.146.476-.146 1.058 0 .535.133 1.031.132.489.442.799.311.31.853.311m9.006 1.302v-7.158h-1.705v-1.09q.82 0 1.322-.152.508-.159.76-.45.25-.297.297-.707h1.282v9.557z"/><g filter="url(#b)"><path fill="#2EC966" d="m285.853 463.271 18.602-5.991a1.435 1.435 0 0 0 1.115-1.403c0-.555-.315-1.052-.8-1.286l-.4-.117-18.717-6.049-8.116-2.513c-.657-.147-1.343-.293-2.029-.351-.371-.029-.714-.059-1.171-.059h-.143l-.2.03c-.857.029-1.686.117-2.458.321l-8.601 2.601-16.688 6.02c-.086.029-.2.059-.286.088a1.45 1.45 0 0 0-.857 1.315c0 .526.286.994.714 1.227l.458.176 16.802 6.02 9.058 2.747c.172.029.372.058.543.088.486.087.972.117 1.601.117 1 0 2-.117 2.971-.41l1.201-.321z"/><path fill="#3AA4FF" d="M313.778 465.564c-1.491-1.06-2.396-1.617-4.208-1.617-.818 0-1.666.111-2.484.362l-23.347 6.97c-3.623 1.031-6.078 4.154-6.078 7.778v39.001c0 2.732 1.373 5.185 3.74 6.719 2.367 1.533 5.26 1.84 7.919.836l23.347-9.228c3.273-1.254 4.529-4.209 4.529-7.555v-36.743c0-2.592-1.256-4.962-3.418-6.523"/><path fill="#FF4C59" d="m266.6 470.744-26.656-8.875a6 6 0 0 0-1.611-.229c-1.207 0-1.552.4-2.559 1.145a5.62 5.62 0 0 0-2.3 4.552v40.883c0 2.319.546 4.38 2.703 5.268l26.656 12.282c1.783.716 3.71.515 5.32-.544s2.53-2.806 2.53-4.724v-44.319c0-2.49-1.667-4.752-4.083-5.439"/></g></g><defs><clipPath id="a"><path fill="#fff" d="M0 0h552v882H0z"/></clipPath><filter id="b" width="90.448" height="87.416" x="230.111" y="445.502" color-interpolation-filters="sRGB" filterUnits="userSpaceOnUse"><feFlood flood-opacity="0" result="BackgroundImageFix"/><feColorMatrix in="SourceAlpha" result="hardAlpha" values="0 0 0 0 0 0 0 0 0 0 0 0 0 0 0 0 0 0 127 0"/><feOffset dy="3.362"/><feGaussianBlur stdDeviation="1.681"/><feComposite in2="hardAlpha" operator="out"/><feColorMatrix values="0 0 0 0 0 0 0 0 0 0 0 0 0 0 0 0 0 0 0.25 0"/><feBlend in2="BackgroundImageFix" result="effect1_dropShadow_486_1590"/><feBlend in="SourceGraphic" in2="effect1_dropShadow_486_1590" result="shape"/></filter></defs></svg>