<svg width="56" height="56" fill="none" xmlns="http://www.w3.org/2000/svg">
    <path d="M50.396 48.833c0 .855-.709 1.563-1.563 1.563H7.167a1.574 1.574 0 0 1-1.563-1.563 1.56 1.56 0 0 1 1.563-1.562h41.666a1.56 1.56 0 0 1 1.563 1.562Z" fill="#009AFA"/>
    <path d="M46.748 23.792v23.48H9.144l.104-23.5c0-1.272.584-2.48 1.605-3.271L25.436 9.166a4.132 4.132 0 0 1 5.125 0L45.144 20.5c1.021.792 1.604 2 1.604 3.292Z" fill="#009AFA"/>
    <path d="M31.125 20.188h-6.25a1.574 1.574 0 0 1-1.563-1.563c0-.854.709-1.563 1.563-1.563h6.25c.854 0 1.563.709 1.563 1.563s-.709 1.563-1.563 1.563ZM35.292 25.917H20.708a3.12 3.12 0 0 0-3.125 3.125v19.791h20.834V29.042a3.12 3.12 0 0 0-3.125-3.125Zm-9.896 14.062c0 .854-.709 1.563-1.563 1.563a1.574 1.574 0 0 1-1.562-1.563v-3.125c0-.854.708-1.562 1.562-1.562.855 0 1.563.708 1.563 1.562v3.125Z" fill="#9BD9FF"/>
</svg>
