<svg width="56" height="56" fill="none" xmlns="http://www.w3.org/2000/svg">
    <path opacity=".4" d="M40.133 43.867a2.8 2.8 0 1 1-5.599 0 2.8 2.8 0 0 1 5.6 0Zm-14-2.8a2.8 2.8 0 1 0 0 5.6 2.8 2.8 0 0 0 0-5.6Z" fill="#07973C"/>
    <path d="M46.275 17.51a1.868 1.868 0 0 0-1.475-.71H19.563l-.672-4.312a3.733 3.733 0 0 0-3.696-3.155H11.2a1.867 1.867 0 1 0 0 3.734h3.995l3.472 22.68a1.867 1.867 0 0 0 1.866 1.586h.168l20.534-1.866a1.867 1.867 0 0 0 1.642-1.419l3.734-14.933a1.866 1.866 0 0 0-.336-1.606Z" fill="#2EC966"/>
</svg>
