<svg width="56" height="56" fill="none" xmlns="http://www.w3.org/2000/svg">
    <path d="m40.755 34.392-5.553-2.557-2.667-2.25-4.266 4.244 1.84 12.297a.164.164 0 0 1-.03.122l-1.946 2.663a.164.164 0 0 1-.266 0l-1.946-2.663a.164.164 0 0 1-.03-.122l1.84-12.297-4.266-4.243-2.667 2.25-5.553 2.556c-.821.336-1.62.844-2.04 1.74 0 0-6.034 14.368-2.76 14.368h35.11c3.274 0-2.76-14.368-2.76-14.368-.358-.856-1.219-1.404-2.04-1.74Z" fill="#35B5A4"/>
    <path d="M28 29.505c5.678 0 9.916-5.291 10.012-14.164C38.074 9.185 35.142 5.5 28 5.5s-10.075 3.685-10.013 9.841c.097 8.873 4.334 14.164 10.013 14.164Z" fill="#95D7CE"/>
</svg>
