<svg width="56" height="56" fill="none" xmlns="http://www.w3.org/2000/svg">
    <path d="m40.176 13.581-.942 4.409a1.422 1.422 0 0 1-2.776.008l-.528-2.402-1.772 1.148a2.111 2.111 0 0 1-2.92-.624l-1.483-2.292a1.492 1.492 0 0 1 1.565-2.27l1.459.311a2.11 2.11 0 0 0 1.59-.292l1.037-.672-1.936-1.142a1.529 1.529 0 0 1 1.194-2.786l4.73 1.345 2.214-1.434c.59-.383 2.002-.793 2.92.624.918 1.417-.033 2.537-.625 2.919l-2.809 1.82c-.47.305-.8.783-.918 1.33Z" fill="#FFB7BD"/>
    <path fill-rule="evenodd" clip-rule="evenodd" d="M9.602 46.978H6.936a1.334 1.334 0 0 1-1.334-1.334v-1.333a2.668 2.668 0 0 1-2.666-2.667V30.978a1.334 1.334 0 0 1-1.334-1.334v-4c0-.736.598-1.333 1.334-1.333v-5.333a4 4 0 0 1 4-4h21.333a4 4 0 0 1 4 4v5.333c.736 0 1.333.597 1.333 1.333v4c0 .736-.597 1.334-1.333 1.334v10.666a2.667 2.667 0 0 1-2.667 2.667v1.333c0 .736-.597 1.334-1.333 1.334h-2.667a1.334 1.334 0 0 1-1.333-1.334v-1.333H10.936v1.333c0 .736-.598 1.334-1.334 1.334Zm-2-9.334a2 2 0 1 1-.001 4.002 2 2 0 0 1 .001-4.002Zm20 0a2 2 0 1 1-.001 4.002 2 2 0 0 1 .001-4.002Zm-6.666 1.334h-6.667a.667.667 0 0 0 0 1.333h6.667a.667.667 0 0 0 0-1.333Zm8.666-16.667a.667.667 0 0 0-.666-.667H6.269a.667.667 0 0 0-.667.667v11.333s4.131 1.334 12 1.334c7.87 0 12-1.334 12-1.334V22.311Zm-6.666-4.667H12.269v1.334h10.667v-1.334Z" fill="#FF4C59"/>
    <path d="M32.07 39.478a3 3 0 1 1-6 0 3 3 0 0 1 6 0ZM51.07 39.478a3 3 0 1 1-6 0 3 3 0 0 1 6 0Z" fill="#FFB7BD"/>
    <path d="M53.752 30.811c.356 0 .646.299.646.667v.681c0 1.057-1.196 1.319-2.088 1.319l-1.402-2.667h2.844Zm-1.861 4.675c.825 1.581 1.221 3.002 1.221 4.888 0 1.826-.512 3.377-1.298 5.308v2.462c0 .736-.578 1.334-1.291 1.334h-1.938c-.713 0-1.291-.598-1.291-1.334v-1.333H30.502v1.333c0 .736-.579 1.334-1.292 1.334h-1.937c-.713 0-1.292-.598-1.292-1.334v-2.462c-.785-1.931-1.298-3.482-1.298-5.308 0-1.886.396-3.307 1.222-4.888 1.07-2.05 2.39-4.604 3.784-7.003 1.07-1.843 1.63-2.276 2.943-2.519 1.979-.366 3.769-.486 6.266-.486 2.496 0 4.287.12 6.265.486 1.313.243 1.873.676 2.943 2.519 1.394 2.399 2.714 4.953 3.785 7.003Zm-20.743 3.992c0-1.104-.868-2-1.938-2-1.07 0-1.937.896-1.937 2s.868 2 1.937 2c1.07 0 1.938-.896 1.938-2Zm12.916 1.333a.657.657 0 0 0-.645-.667h-9.042a.657.657 0 0 0-.646.667c0 .368.29.667.646.667h9.041a.657.657 0 0 0 .646-.667Zm3.8-7.37s-.957-2.434-2.108-4.189a1.724 1.724 0 0 0-1.122-.754c-1.952-.363-3.662-.479-5.736-.479-2.075 0-3.785.116-5.737.479a1.714 1.714 0 0 0-1.122.754c-1.151 1.754-2.107 4.19-2.107 4.19 2.119.417 5.566.662 8.966.662 3.4 0 6.847-.245 8.965-.662Zm2.659 6.037c0-1.104-.868-2-1.938-2-1.07 0-1.937.896-1.937 2s.868 2 1.937 2c1.07 0 1.938-.896 1.938-2ZM26.888 30.81h-2.845a.657.657 0 0 0-.645.667v.681c0 1.057 1.196 1.319 2.087 1.319l1.403-2.667Z" fill="#FF4C59"/>
</svg>
